<svg width="880" height="508" viewBox="0 0 880 508" fill="none" xmlns="http://www.w3.org/2000/svg">
<path d="M182.34 272.532C182.317 272.472 182.298 272.41 182.286 272.346C182.26 272.215 182.243 272.123 182.227 272.039C182.21 271.943 182.194 271.86 182.17 271.744C182.133 271.571 182.099 271.45 182.061 271.357C182.009 271.23 181.955 271.153 181.828 271.083C180.954 270.779 176.992 269.248 172.681 266.721C168.253 264.125 163.222 260.345 160.981 255.583C159.624 252.7 158.789 250.174 158.442 247.547C158.095 244.92 158.246 242.256 158.785 239.107C160.112 231.374 163.393 227.488 168.58 221.936C171.672 218.627 175.657 216.244 179.379 214.65C183.094 213.059 186.638 212.216 188.913 212.048C191.143 211.883 195.141 211.996 199.379 213.085C203.612 214.172 208.199 216.263 211.452 220.144C213.082 222.089 213.847 223.89 214.576 225.608L214.59 225.64C215.194 227.063 215.775 228.425 216.806 229.929C218.399 232.25 220.621 234.773 222.467 236.734C223.386 237.71 224.204 238.539 224.791 239.123C225.084 239.414 225.32 239.645 225.482 239.802C225.563 239.88 225.625 239.94 225.667 239.98L225.714 240.025L225.725 240.036L225.728 240.039L225.728 240.039C225.729 240.039 225.729 240.039 225.729 240.039C226.141 240.432 226.204 241.069 225.876 241.539L223.932 244.331C224.065 244.537 224.223 244.787 224.398 245.075C224.933 245.953 225.637 247.188 226.311 248.618C227.628 251.412 228.951 255.195 228.393 258.516C227.959 261.097 227.281 263.073 226.075 264.719C225.074 266.084 223.763 267.147 222.095 268.145L222.953 269.568L233.539 270.862C233.968 270.915 234.33 271.203 234.477 271.61C234.624 272.017 234.531 272.473 234.236 272.793L233.869 273.191L233.868 273.192L182.34 272.532ZM182.34 272.532L182.724 273.535C182.733 273.557 182.742 273.579 182.752 273.601L184.838 278.175C184.545 278.485 184.207 278.836 183.833 279.226L183.832 279.226L183.832 279.226L183.811 279.248C181.743 281.401 178.639 284.633 176.331 287.762L177.258 288.445L176.331 287.762C174.82 289.811 173.482 292.03 173.136 293.994C172.956 295.014 173.016 296.115 173.619 297.083C174.225 298.056 175.23 298.655 176.443 298.976C178.173 299.432 179.706 299.361 181.099 298.823C182.459 298.296 183.562 297.37 184.527 296.335C185.385 295.412 186.201 294.325 187.012 293.246L187.034 293.217L186.113 292.525L187.034 293.217L187.297 292.866C187.297 292.866 187.297 292.866 187.297 292.866C188.224 291.635 189.185 290.387 190.311 289.204C192.353 287.061 194.895 286.153 198.747 285.725C200.687 285.509 202.904 285.42 205.511 285.339L205.484 284.183L205.511 285.339C205.909 285.327 206.315 285.315 206.729 285.303L206.764 285.302L206.764 285.302L206.769 285.301C209.049 285.233 211.59 285.157 214.413 285C219.113 284.738 224.039 281.641 227.623 278.848C229.453 277.421 231.008 276.013 232.106 274.962C232.655 274.436 233.092 273.998 233.393 273.689C233.544 273.535 233.66 273.413 233.74 273.328L233.731 273.319M182.34 272.532L233.731 273.319M233.731 273.319L233.74 273.328L233.8 273.265M233.731 273.319L233.8 273.265M233.8 273.265L233.8 273.265L233.833 273.23L233.834 273.229L233.856 273.205L233.858 273.203L233.864 273.197L233.8 273.265Z" fill="#171E1E" stroke="white" stroke-width="2.31186" stroke-linejoin="round"/>
<path fill-rule="evenodd" clip-rule="evenodd" d="M183.418 272.111C183.252 271.283 183.197 270.449 182.282 270.013C181.088 269.616 166.195 263.941 162.026 255.083C159.379 249.461 158.869 245.445 159.924 239.295C161.189 231.914 164.267 228.239 169.42 222.724C175.318 216.412 184.75 213.515 188.99 213.202C193.23 212.888 204.478 213.629 210.566 220.892C212.086 222.705 212.795 224.375 213.527 226.099C214.13 227.521 214.75 228.981 215.853 230.589C219.14 235.378 224.931 240.882 224.931 240.882L222.534 244.322C222.534 244.322 228.245 252.44 227.254 258.331C226.418 263.304 224.723 265.443 220.49 267.73L222.252 270.649L233.391 272.011L233.023 272.41L232.82 272.227C232.919 272.317 232.97 272.363 232.996 272.386C233.023 272.41 233.023 272.41 233.023 272.41L233.015 272.418L232.992 272.442C232.984 272.451 232.974 272.462 232.962 272.475C232.946 272.492 232.927 272.512 232.905 272.535C232.829 272.616 232.716 272.734 232.57 272.884C232.277 273.184 231.85 273.613 231.311 274.129C230.234 275.16 228.709 276.54 226.918 277.936C223.352 280.716 218.673 283.604 214.357 283.845C211.548 284.001 209.02 284.077 206.738 284.145L206.703 284.146C206.288 284.158 205.882 284.171 205.484 284.183C202.88 284.264 200.619 284.353 198.628 284.575C194.651 285.017 191.791 285.98 189.478 288.408C188.301 289.644 187.306 290.94 186.377 292.174C186.288 292.291 186.2 292.409 186.113 292.525C185.286 293.626 184.501 294.671 183.685 295.549C182.78 296.521 181.819 297.306 180.689 297.743C179.553 298.183 178.271 298.26 176.744 297.857C175.715 297.585 175.005 297.116 174.6 296.465C174.196 295.817 174.124 295.033 174.273 294.188C174.568 292.512 175.755 290.482 177.258 288.445C179.521 285.378 182.584 282.189 184.661 280.026L184.662 280.025C185.282 279.38 185.814 278.826 186.211 278.394L183.803 273.114L183.418 272.111Z" fill="#171E1E"/>
<path d="M209.734 266.093C200.185 269.41 192.074 262.085 192.074 262.085L191.049 260.819C191.049 260.819 189.376 262.101 188.151 262.637C185.921 263.611 184.391 263.813 181.987 263.503C178.708 263.08 176.165 262.334 174.598 259.462C173.173 256.85 172.439 253.795 174.723 251.826C176.396 250.384 178.15 250.697 180.327 251.039C183.637 251.559 184.56 254.959 187.266 255.989C189.972 257.02 191.189 255.438 191.189 255.438C191.189 255.438 185.031 241.348 185.127 239.924C185.223 238.5 186.306 238.065 186.306 238.065C186.306 238.065 184.367 236.363 184.537 235.492C184.706 234.622 204.762 224.467 204.762 224.467C204.762 224.467 209.725 227.438 209.74 229.693C209.755 231.948 209.585 232.819 211.768 234.205C213.951 235.591 221.037 241.649 221.037 241.649L215.5 247.224L218.656 247.345C218.656 247.345 223.358 256.936 221.997 259.573C220.635 262.21 219.283 262.776 209.734 266.093Z" fill="#D9D9D9" stroke="white" stroke-width="0.866947"/>
<path d="M214.431 271.431C214.671 271.615 214.912 271.808 215.148 272.007C216.008 272.735 216.775 273.536 217.192 274.319C217.605 275.093 217.654 275.797 217.185 276.417C216.703 277.054 216.158 277.359 215.523 277.586C215.251 277.683 214.967 277.765 214.66 277.853L214.66 277.853L214.481 277.904C214.109 278.011 213.709 278.132 213.289 278.299C212.974 278.424 209.189 279.149 209.189 279.149C209.189 279.149 198.789 281.58 194.456 277.834C192.914 276.5 191.319 273.673 191.319 273.673C190.754 272.503 190.258 270.902 189.901 269.58C189.741 268.986 189.61 268.452 189.514 268.045C190.417 267.951 191.15 268.296 191.972 268.683L191.972 268.683C192.386 268.877 192.822 269.082 193.313 269.247C194.937 269.793 196.19 270.555 197.389 271.284L197.389 271.284C199.145 272.351 200.783 273.347 203.297 273.487C207.059 273.697 210.798 272.823 214.431 271.431Z" fill="#D9D9D9"/>
<path d="M196.963 240.83L194.913 238.297C194.913 238.297 196.961 235.32 199.271 234.581C201.269 233.941 204.108 234.465 204.108 234.465L204.329 236.127C204.329 236.127 202.216 236.324 201.004 236.877C198.991 237.794 196.963 240.83 196.963 240.83Z" fill="#171E1E"/>
<path d="M215.207 253.503C212.759 254.412 210.723 254.133 210.723 254.133C210.723 254.133 209.931 255.171 209.824 255.953C209.735 256.603 210.045 257.615 210.045 257.615C210.045 257.615 215.462 257.563 216.733 256.393C218.274 254.974 219.483 253.467 219.483 253.467L218.982 251.844C218.982 251.844 216.455 253.04 215.207 253.503Z" fill="#171E1E"/>
<ellipse cx="3.09316" cy="2.81196" rx="3.09316" ry="2.81196" transform="matrix(0.797352 0.597482 -0.611859 0.795534 202.312 237.822)" fill="#171E1E"/>
<path d="M295.625 253.104C298.185 253.915 300.191 255.28 301.641 257.2C303.092 259.077 303.817 261.403 303.817 264.176C303.817 268.101 302.281 271.131 299.209 273.264C296.18 275.355 291.743 276.4 285.897 276.4H262.729V231.6H284.617C290.079 231.6 294.26 232.645 297.161 234.736C300.105 236.827 301.577 239.664 301.577 243.248C301.577 245.424 301.044 247.365 299.977 249.072C298.953 250.779 297.503 252.123 295.625 253.104ZM273.033 239.408V249.968H283.337C285.897 249.968 287.839 249.52 289.161 248.624C290.484 247.728 291.145 246.405 291.145 244.656C291.145 242.907 290.484 241.605 289.161 240.752C287.839 239.856 285.897 239.408 283.337 239.408H273.033ZM285.129 268.592C287.86 268.592 289.908 268.144 291.273 267.248C292.681 266.352 293.385 264.965 293.385 263.088C293.385 259.376 290.633 257.52 285.129 257.52H273.033V268.592H285.129Z" fill="#171E1E"/>
<path d="M340.211 276.4L331.571 263.92H322.035V276.4H311.667V231.6H331.059C335.027 231.6 338.462 232.261 341.363 233.584C344.307 234.907 346.568 236.784 348.147 239.216C349.726 241.648 350.515 244.528 350.515 247.856C350.515 251.184 349.704 254.064 348.083 256.496C346.504 258.885 344.243 260.72 341.299 262L351.347 276.4H340.211ZM340.019 247.856C340.019 245.339 339.208 243.419 337.587 242.096C335.966 240.731 333.598 240.048 330.483 240.048H322.035V255.664H330.483C333.598 255.664 335.966 254.981 337.587 253.616C339.208 252.251 340.019 250.331 340.019 247.856Z" fill="#171E1E"/>
<path d="M398.794 231.6V276.4H388.745V270.96C385.673 275.099 381.151 277.168 375.177 277.168C369.887 277.168 365.748 275.504 362.761 272.176C359.817 268.805 358.345 264.027 358.345 257.84V231.6H368.713V257.52C368.713 261.104 369.545 263.813 371.209 265.648C372.916 267.44 375.22 268.336 378.121 268.336C381.236 268.336 383.732 267.376 385.609 265.456C387.487 263.493 388.425 260.613 388.425 256.816V231.6H398.794Z" fill="#171E1E"/>
<path d="M433.161 230.832C438.494 230.832 442.654 232.517 445.641 235.888C448.628 239.216 450.121 243.973 450.121 250.16V276.4H439.753V250.48C439.753 246.896 438.9 244.208 437.193 242.416C435.529 240.581 433.204 239.664 430.217 239.664C427.06 239.664 424.521 240.645 422.601 242.608C420.724 244.528 419.785 247.387 419.785 251.184V276.4H409.417V231.6H419.465V237.04C421.001 234.992 422.921 233.456 425.225 232.432C427.529 231.365 430.174 230.832 433.161 230.832Z" fill="#171E1E"/>
<path d="M482.05 277.168C477.4 277.168 473.197 276.165 469.443 274.16C465.73 272.155 462.808 269.403 460.674 265.904C458.584 262.363 457.538 258.395 457.538 254C457.538 249.605 458.584 245.659 460.674 242.16C462.808 238.619 465.73 235.845 469.443 233.84C473.197 231.835 477.4 230.832 482.05 230.832C486.701 230.832 490.882 231.835 494.594 233.84C498.307 235.845 501.229 238.619 503.363 242.16C505.496 245.659 506.562 249.605 506.562 254C506.562 258.395 505.496 262.363 503.363 265.904C501.229 269.403 498.307 272.155 494.594 274.16C490.882 276.165 486.701 277.168 482.05 277.168ZM482.05 268.336C484.696 268.336 487.085 267.739 489.219 266.544C491.352 265.307 493.016 263.6 494.21 261.424C495.448 259.248 496.066 256.773 496.066 254C496.066 251.227 495.448 248.752 494.21 246.576C493.016 244.4 491.352 242.715 489.219 241.52C487.085 240.283 484.696 239.664 482.05 239.664C479.405 239.664 477.016 240.283 474.882 241.52C472.749 242.715 471.064 244.4 469.826 246.576C468.632 248.752 468.035 251.227 468.035 254C468.035 256.773 468.632 259.248 469.826 261.424C471.064 263.6 472.749 265.307 474.882 266.544C477.016 267.739 479.405 268.336 482.05 268.336Z" fill="#171E1E"/>
<path d="M554.621 231.6C558.589 231.6 562.024 232.261 564.925 233.584C567.869 234.907 570.131 236.784 571.709 239.216C573.288 241.648 574.077 244.528 574.077 247.856C574.077 251.141 573.288 254.021 571.709 256.496C570.131 258.928 567.869 260.805 564.925 262.128C562.024 263.408 558.589 264.048 554.621 264.048H545.597V276.4H535.229V231.6H554.621ZM554.045 255.6C557.16 255.6 559.528 254.939 561.149 253.616C562.771 252.251 563.581 250.331 563.581 247.856C563.581 245.339 562.771 243.419 561.149 242.096C559.528 240.731 557.16 240.048 554.045 240.048H545.597V255.6H554.045Z" fill="#171E1E"/>
<path d="M621.356 231.6V276.4H611.308V270.96C608.236 275.099 603.713 277.168 597.74 277.168C592.449 277.168 588.311 275.504 585.324 272.176C582.38 268.805 580.908 264.027 580.908 257.84V231.6H591.276V257.52C591.276 261.104 592.108 263.813 593.772 265.648C595.479 267.44 597.783 268.336 600.684 268.336C603.799 268.336 606.295 267.376 608.172 265.456C610.049 263.493 610.988 260.613 610.988 256.816V231.6H621.356Z" fill="#171E1E"/>
<path d="M631.979 231.6H642.347V267.952H664.811V276.4H631.979V231.6Z" fill="#171E1E"/>
<path d="M685.964 239.92V268.08H693.708V276.4H667.788V268.08H675.596V239.92H667.788V231.6H693.708V239.92H685.964Z" fill="#171E1E"/>
<path d="M716.262 277.168C712.721 277.168 709.286 276.699 705.958 275.76C702.673 274.779 700.027 273.52 698.022 271.984L701.542 264.176C703.462 265.584 705.745 266.715 708.39 267.568C711.035 268.421 713.681 268.848 716.326 268.848C719.27 268.848 721.446 268.421 722.854 267.568C724.262 266.672 724.966 265.499 724.966 264.048C724.966 262.981 724.539 262.107 723.686 261.424C722.875 260.699 721.809 260.123 720.486 259.696C719.206 259.269 717.457 258.8 715.238 258.288C711.825 257.477 709.03 256.667 706.854 255.856C704.678 255.045 702.801 253.744 701.222 251.952C699.686 250.16 698.918 247.771 698.918 244.784C698.918 242.181 699.622 239.835 701.03 237.744C702.438 235.611 704.55 233.925 707.366 232.688C710.225 231.451 713.702 230.832 717.798 230.832C720.657 230.832 723.451 231.173 726.182 231.856C728.913 232.539 731.302 233.52 733.35 234.8L730.15 242.672C726.011 240.325 721.873 239.152 717.734 239.152C714.833 239.152 712.678 239.621 711.27 240.56C709.905 241.499 709.222 242.736 709.222 244.272C709.222 245.808 710.011 246.96 711.59 247.728C713.211 248.453 715.665 249.179 718.95 249.904C722.363 250.715 725.158 251.525 727.334 252.336C729.51 253.147 731.366 254.427 732.902 256.176C734.481 257.925 735.27 260.293 735.27 263.28C735.27 265.84 734.545 268.187 733.094 270.32C731.686 272.411 729.553 274.075 726.694 275.312C723.835 276.549 720.358 277.168 716.262 277.168Z" fill="#171E1E"/>
</svg>
