<svg width="880" height="508" viewBox="0 0 880 508" fill="none" xmlns="http://www.w3.org/2000/svg">
<path d="M182.339 272.532C182.316 272.472 182.298 272.41 182.286 272.346C182.259 272.215 182.242 272.123 182.227 272.039C182.209 271.943 182.194 271.86 182.169 271.744C182.133 271.571 182.098 271.45 182.061 271.357C182.009 271.23 181.955 271.153 181.828 271.083C180.954 270.779 176.991 269.248 172.681 266.721C168.253 264.125 163.222 260.345 160.981 255.583C159.624 252.7 158.788 250.174 158.442 247.547C158.095 244.92 158.245 242.256 158.785 239.107C160.111 231.374 163.392 227.488 168.579 221.936C171.672 218.627 175.657 216.244 179.379 214.65C183.094 213.059 186.638 212.216 188.912 212.048C191.142 211.883 195.141 211.996 199.378 213.085C203.612 214.172 208.198 216.263 211.452 220.144C213.082 222.089 213.847 223.89 214.576 225.609L214.589 225.64C215.193 227.063 215.774 228.425 216.806 229.929C218.399 232.25 220.62 234.773 222.467 236.734C223.386 237.71 224.203 238.539 224.791 239.123C225.084 239.414 225.32 239.645 225.481 239.802C225.562 239.88 225.625 239.94 225.666 239.98L225.714 240.025L225.725 240.036L225.728 240.039L225.728 240.039C225.728 240.039 225.728 240.039 225.728 240.039C226.141 240.432 226.204 241.069 225.876 241.539L223.932 244.331C224.065 244.537 224.223 244.787 224.398 245.075C224.933 245.953 225.637 247.188 226.31 248.618C227.628 251.412 228.951 255.195 228.393 258.516C227.959 261.097 227.281 263.073 226.075 264.719C225.074 266.084 223.763 267.147 222.095 268.145L222.953 269.568L233.538 270.862C233.968 270.915 234.33 271.203 234.477 271.61C234.624 272.017 234.531 272.473 234.236 272.793L233.868 273.192C233.866 273.194 233.865 273.195 233.863 273.197L182.339 272.532ZM182.339 272.532L182.724 273.535C182.733 273.557 182.742 273.579 182.752 273.601L184.838 278.175C184.544 278.485 184.207 278.836 183.832 279.226L183.832 279.226L183.832 279.226L183.811 279.248C181.743 281.401 178.639 284.633 176.331 287.762L177.258 288.445L176.331 287.762C174.819 289.811 173.482 292.03 173.135 293.994C172.955 295.014 173.016 296.115 173.619 297.083C174.225 298.056 175.23 298.655 176.442 298.976C178.172 299.432 179.706 299.361 181.098 298.823C182.459 298.296 183.562 297.371 184.526 296.335C185.385 295.412 186.201 294.325 187.011 293.246L187.033 293.217L187.297 292.866C187.297 292.866 187.297 292.866 187.297 292.866C188.224 291.635 189.184 290.387 190.311 289.204C192.352 287.061 194.895 286.153 198.747 285.725C200.687 285.509 202.904 285.42 205.511 285.339C205.909 285.327 206.314 285.315 206.729 285.303L206.764 285.302L206.764 285.302L206.769 285.301C209.049 285.233 211.589 285.158 214.413 285C219.113 284.738 224.039 281.641 227.623 278.848C229.453 277.421 231.008 276.013 232.106 274.962C232.655 274.436 233.092 273.998 233.393 273.689C233.543 273.535 233.66 273.413 233.74 273.328L233.74 273.328L233.8 273.265M182.339 272.532L233.8 273.265M233.8 273.265L233.8 273.265L233.833 273.23L233.834 273.229L233.856 273.205L233.858 273.203L233.8 273.265Z" fill="#171E1E" stroke="white" stroke-width="2.31186" stroke-linejoin="round"/>
<path d="M214.431 271.431C214.671 271.615 214.912 271.808 215.147 272.007C216.008 272.735 216.775 273.536 217.192 274.319C217.605 275.093 217.654 275.797 217.185 276.417C216.702 277.054 216.158 277.359 215.523 277.586C215.25 277.684 214.966 277.765 214.659 277.853L214.659 277.853L214.481 277.904C214.108 278.011 213.709 278.132 213.289 278.299C212.974 278.424 209.189 279.149 209.189 279.149C209.189 279.149 198.788 281.58 194.456 277.834C192.914 276.5 191.319 273.673 191.319 273.673C190.753 272.503 190.257 270.902 189.901 269.58C189.741 268.986 189.609 268.452 189.514 268.045C190.416 267.951 191.15 268.296 191.972 268.683L191.972 268.683C192.385 268.877 192.821 269.082 193.313 269.247C194.937 269.793 196.19 270.555 197.389 271.284L197.389 271.284C199.144 272.351 200.783 273.347 203.297 273.487C207.059 273.697 210.798 272.823 214.431 271.431Z" fill="white"/>
<path fill-rule="evenodd" clip-rule="evenodd" d="M192.073 262.085C192.073 262.085 200.185 269.41 209.734 266.093C219.282 262.776 220.634 262.21 221.996 259.573C223.357 256.936 218.655 247.345 218.655 247.345L215.499 247.224L221.036 241.649C221.036 241.649 213.95 235.591 211.767 234.205C209.742 232.919 209.742 232.077 209.74 230.162C209.74 230.012 209.74 229.856 209.739 229.693C209.724 227.438 204.762 224.467 204.762 224.467C204.762 224.467 184.705 234.622 184.536 235.492C184.366 236.363 186.306 238.065 186.306 238.065C186.306 238.065 185.222 238.5 185.126 239.924C185.03 241.348 191.188 255.438 191.188 255.438C191.188 255.438 189.971 257.02 187.265 255.989C186.073 255.535 185.227 254.622 184.371 253.697C183.283 252.523 182.178 251.33 180.326 251.039C180.281 251.032 180.237 251.025 180.192 251.018C178.078 250.684 176.361 250.414 174.722 251.826C172.438 253.795 173.172 256.85 174.597 259.462C176.164 262.334 178.707 263.08 181.986 263.503C184.39 263.813 185.921 263.611 188.15 262.637C189.375 262.101 191.048 260.819 191.048 260.819L192.073 262.085ZM196.963 240.83L194.913 238.297C194.913 238.297 196.961 235.32 199.271 234.581C201.269 233.941 204.108 234.465 204.108 234.465L204.329 236.127C204.329 236.127 202.215 236.324 201.004 236.877C198.991 237.794 196.963 240.83 196.963 240.83ZM215.206 253.503C212.758 254.412 210.723 254.133 210.723 254.133C210.723 254.133 209.931 255.171 209.823 255.953C209.734 256.603 210.045 257.615 210.045 257.615C210.045 257.615 215.461 257.563 216.733 256.393C218.274 254.974 219.483 253.467 219.483 253.467L218.981 251.844C218.981 251.844 216.455 253.04 215.206 253.503ZM205.524 243.755C204.573 244.99 202.699 245.164 201.337 244.144C199.975 243.123 199.641 241.294 200.591 240.058C201.541 238.823 203.416 238.649 204.778 239.669C206.14 240.69 206.474 242.519 205.524 243.755Z" fill="white"/>
<path d="M295.626 253.104C298.186 253.915 300.191 255.28 301.642 257.2C303.092 259.077 303.818 261.403 303.818 264.176C303.818 268.101 302.282 271.131 299.21 273.264C296.18 275.355 291.743 276.4 285.898 276.4H262.73V231.6H284.618C290.079 231.6 294.26 232.645 297.162 234.736C300.106 236.827 301.578 239.664 301.578 243.248C301.578 245.424 301.044 247.365 299.978 249.072C298.954 250.779 297.503 252.123 295.626 253.104ZM273.034 239.408V249.968H283.338C285.898 249.968 287.839 249.52 289.162 248.624C290.484 247.728 291.146 246.405 291.146 244.656C291.146 242.907 290.484 241.605 289.162 240.752C287.839 239.856 285.898 239.408 283.338 239.408H273.034ZM285.13 268.592C287.86 268.592 289.908 268.144 291.274 267.248C292.682 266.352 293.386 264.965 293.386 263.088C293.386 259.376 290.634 257.52 285.13 257.52H273.034V268.592H285.13Z" fill="black"/>
<path d="M340.211 276.4L331.571 263.92H322.035V276.4H311.667V231.6H331.059C335.027 231.6 338.462 232.261 341.363 233.584C344.307 234.907 346.569 236.784 348.147 239.216C349.726 241.648 350.515 244.528 350.515 247.856C350.515 251.184 349.705 254.064 348.083 256.496C346.505 258.885 344.243 260.72 341.299 262L351.347 276.4H340.211ZM340.019 247.856C340.019 245.339 339.209 243.419 337.587 242.096C335.966 240.731 333.598 240.048 330.483 240.048H322.035V255.664H330.483C333.598 255.664 335.966 254.981 337.587 253.616C339.209 252.251 340.019 250.331 340.019 247.856Z" fill="black"/>
<path d="M398.794 231.6V276.4H388.746V270.96C385.674 275.099 381.151 277.168 375.178 277.168C369.887 277.168 365.748 275.504 362.762 272.176C359.818 268.805 358.346 264.027 358.346 257.84V231.6H368.714V257.52C368.714 261.104 369.546 263.813 371.21 265.648C372.916 267.44 375.22 268.336 378.122 268.336C381.236 268.336 383.732 267.376 385.61 265.456C387.487 263.493 388.426 260.613 388.426 256.816V231.6H398.794Z" fill="black"/>
<path d="M433.161 230.832C438.495 230.832 442.655 232.517 445.641 235.888C448.628 239.216 450.121 243.973 450.121 250.16V276.4H439.753V250.48C439.753 246.896 438.9 244.208 437.193 242.416C435.529 240.581 433.204 239.664 430.217 239.664C427.06 239.664 424.521 240.645 422.601 242.608C420.724 244.528 419.785 247.387 419.785 251.184V276.4H409.417V231.6H419.465V237.04C421.001 234.992 422.921 233.456 425.225 232.432C427.529 231.365 430.175 230.832 433.161 230.832Z" fill="black"/>
<path d="M482.051 277.168C477.4 277.168 473.197 276.165 469.443 274.16C465.731 272.155 462.808 269.403 460.675 265.904C458.584 262.363 457.539 258.395 457.539 254C457.539 249.605 458.584 245.659 460.675 242.16C462.808 238.619 465.731 235.845 469.443 233.84C473.197 231.835 477.4 230.832 482.051 230.832C486.701 230.832 490.883 231.835 494.595 233.84C498.307 235.845 501.229 238.619 503.363 242.16C505.496 245.659 506.563 249.605 506.563 254C506.563 258.395 505.496 262.363 503.363 265.904C501.229 269.403 498.307 272.155 494.595 274.16C490.883 276.165 486.701 277.168 482.051 277.168ZM482.051 268.336C484.696 268.336 487.085 267.739 489.219 266.544C491.352 265.307 493.016 263.6 494.211 261.424C495.448 259.248 496.067 256.773 496.067 254C496.067 251.227 495.448 248.752 494.211 246.576C493.016 244.4 491.352 242.715 489.219 241.52C487.085 240.283 484.696 239.664 482.051 239.664C479.405 239.664 477.016 240.283 474.883 241.52C472.749 242.715 471.064 244.4 469.827 246.576C468.632 248.752 468.035 251.227 468.035 254C468.035 256.773 468.632 259.248 469.827 261.424C471.064 263.6 472.749 265.307 474.883 266.544C477.016 267.739 479.405 268.336 482.051 268.336Z" fill="black"/>
<path d="M554.622 231.6C558.59 231.6 562.024 232.261 564.926 233.584C567.87 234.907 570.131 236.784 571.71 239.216C573.288 241.648 574.078 244.528 574.078 247.856C574.078 251.141 573.288 254.021 571.71 256.496C570.131 258.928 567.87 260.805 564.926 262.128C562.024 263.408 558.59 264.048 554.622 264.048H545.598V276.4H535.23V231.6H554.622ZM554.046 255.6C557.16 255.6 559.528 254.939 561.15 253.616C562.771 252.251 563.582 250.331 563.582 247.856C563.582 245.339 562.771 243.419 561.15 242.096C559.528 240.731 557.16 240.048 554.046 240.048H545.598V255.6H554.046Z" fill="black"/>
<path d="M621.356 231.6V276.4H611.308V270.96C608.236 275.099 603.714 277.168 597.74 277.168C592.45 277.168 588.311 275.504 585.324 272.176C582.38 268.805 580.908 264.027 580.908 257.84V231.6H591.276V257.52C591.276 261.104 592.108 263.813 593.772 265.648C595.479 267.44 597.783 268.336 600.684 268.336C603.799 268.336 606.295 267.376 608.172 265.456C610.05 263.493 610.988 260.613 610.988 256.816V231.6H621.356Z" fill="black"/>
<path d="M631.98 231.6H642.348V267.952H664.812V276.4H631.98V231.6Z" fill="black"/>
<path d="M685.965 239.92V268.08H693.709V276.4H667.789V268.08H675.597V239.92H667.789V231.6H693.709V239.92H685.965Z" fill="black"/>
<path d="M716.262 277.168C712.721 277.168 709.286 276.699 705.958 275.76C702.673 274.779 700.028 273.52 698.022 271.984L701.542 264.176C703.462 265.584 705.745 266.715 708.39 267.568C711.036 268.421 713.681 268.848 716.326 268.848C719.27 268.848 721.446 268.421 722.854 267.568C724.262 266.672 724.966 265.499 724.966 264.048C724.966 262.981 724.54 262.107 723.686 261.424C722.876 260.699 721.809 260.123 720.486 259.696C719.206 259.269 717.457 258.8 715.238 258.288C711.825 257.477 709.03 256.667 706.854 255.856C704.678 255.045 702.801 253.744 701.222 251.952C699.686 250.16 698.918 247.771 698.918 244.784C698.918 242.181 699.622 239.835 701.03 237.744C702.438 235.611 704.55 233.925 707.366 232.688C710.225 231.451 713.702 230.832 717.798 230.832C720.657 230.832 723.452 231.173 726.182 231.856C728.913 232.539 731.302 233.52 733.35 234.8L730.15 242.672C726.012 240.325 721.873 239.152 717.734 239.152C714.833 239.152 712.678 239.621 711.27 240.56C709.905 241.499 709.222 242.736 709.222 244.272C709.222 245.808 710.012 246.96 711.59 247.728C713.212 248.453 715.665 249.179 718.95 249.904C722.364 250.715 725.158 251.525 727.334 252.336C729.51 253.147 731.366 254.427 732.902 256.176C734.481 257.925 735.27 260.293 735.27 263.28C735.27 265.84 734.545 268.187 733.094 270.32C731.686 272.411 729.553 274.075 726.694 275.312C723.836 276.549 720.358 277.168 716.262 277.168Z" fill="black"/>
</svg>
