<svg width="180" height="31" viewBox="0 0 180 31" fill="none" xmlns="http://www.w3.org/2000/svg">
<path d="M26.6069 21.086L26.6258 21.1039C26.6019 21.1292 26.5669 21.1657 26.5219 21.2119C26.4319 21.3042 26.3012 21.4354 26.1369 21.5927C25.8086 21.9071 25.3434 22.3283 24.7959 22.755C23.7239 23.5906 22.2503 24.5169 20.8444 24.5953C19.9998 24.6424 19.2398 24.6651 18.5578 24.6855L18.5563 24.6855L18.5563 24.6855L18.5458 24.6858L18.5457 24.6858L18.1816 24.6968C17.4017 24.721 16.7383 24.7476 16.1582 24.8121C15.0058 24.9403 14.2453 25.2118 13.6346 25.8529C13.2976 26.2066 13.0104 26.58 12.7331 26.9484M26.6069 21.086L12.7331 26.9484M26.6069 21.086L26.6258 21.1039L26.6436 21.085L26.6437 21.0849L26.6534 21.0745L26.6538 21.0741L26.6605 21.0669L26.661 21.0664L26.6634 21.0638L26.664 21.0632L26.7742 20.9437C26.8624 20.8481 26.8902 20.7116 26.8462 20.5899C26.8022 20.4682 26.6939 20.3819 26.5655 20.3662L23.399 19.979L23.1422 19.5535C23.6413 19.255 24.0334 18.9368 24.3328 18.5285C24.6937 18.0363 24.8964 17.4451 25.0262 16.673C25.1933 15.6797 24.7974 14.5481 24.4033 13.7121C24.2018 13.2846 23.9912 12.9149 23.8312 12.6523C23.7788 12.5663 23.7316 12.4915 23.6918 12.4297L24.2734 11.5947C24.3714 11.454 24.3526 11.2634 24.2292 11.1461C24.2292 11.1461 24.2292 11.1461 24.2292 11.1461L24.229 11.1459L24.2282 11.1451L24.2248 11.1419L24.2107 11.1284L24.1554 11.075C24.107 11.028 24.0365 10.9591 23.9487 10.8718C23.773 10.6972 23.5285 10.4494 23.2536 10.1574C22.7012 9.57055 22.0367 8.81598 21.5602 8.12156C21.2516 7.67189 21.0778 7.26424 20.8972 6.83871L20.8932 6.82927C20.675 6.31528 20.4463 5.77634 19.9586 5.19461C18.9854 4.03365 17.6133 3.40821 16.347 3.08295C15.0795 2.75736 13.8833 2.72343 13.2163 2.77278C12.536 2.82312 11.4759 3.07528 10.3645 3.55119C9.25112 4.02795 8.05904 4.74079 7.13401 5.73078C5.58237 7.39138 4.6009 8.55403 4.20421 10.8672C4.04271 11.809 3.99779 12.6061 4.10145 13.3918C4.20514 14.1777 4.45502 14.9334 4.8609 15.7957C5.53141 17.2201 7.03634 18.3509 8.36097 19.1274C9.65032 19.8833 10.8356 20.3412 11.097 20.4322C11.1351 20.4532 11.1512 20.4763 11.1667 20.5144C11.178 20.5422 11.1882 20.5783 11.1992 20.6299C11.2066 20.6646 11.2112 20.6897 11.2164 20.7183C11.221 20.7433 11.2261 20.771 11.234 20.8101C11.2378 20.8291 11.2432 20.8477 11.2501 20.8658L11.3652 21.1659C11.3677 21.1725 11.3705 21.179 11.3734 21.1854L11.9975 22.5537C11.9096 22.6464 11.8086 22.7515 11.6967 22.8681L11.6965 22.8683L11.6958 22.869L11.6957 22.8691L11.6902 22.8748C11.0717 23.5187 10.1431 24.4855 9.45263 25.4215C9.00057 26.0343 8.60051 26.6982 8.49682 27.2857C8.44297 27.5908 8.46118 27.9202 8.64144 28.2097C8.82276 28.5009 9.12337 28.6801 9.48607 28.7759C10.0035 28.9125 10.4622 28.8912 10.8788 28.7301L10.7676 28.437L10.8788 28.7301C11.2859 28.5727 11.6158 28.2958 11.9042 27.9859C12.1611 27.7099 12.4053 27.3848 12.6476 27.062L12.6542 27.0533L12.7331 26.9484M26.6069 21.086L12.4578 26.7412L12.7331 26.9484" fill="#610404" stroke="white" stroke-width="0.691556" stroke-linejoin="round"/>
<path fill-rule="evenodd" clip-rule="evenodd" d="M11.5727 20.7396C11.523 20.4922 11.5065 20.2425 11.2329 20.1122C10.8756 19.9936 6.42081 18.296 5.17353 15.6462C4.38187 13.9644 4.22918 12.7632 4.54466 10.9235C4.92329 8.7156 5.84388 7.61617 7.38541 5.96639C9.14966 4.07825 11.971 3.2118 13.2393 3.11796C14.5076 3.02411 17.8723 3.24582 19.6934 5.41829C20.1482 5.96079 20.3602 6.46022 20.5792 6.97605C20.7597 7.40143 20.945 7.83797 21.2751 8.319C22.2583 9.75175 23.9905 11.398 23.9905 11.398L23.2737 12.4272C23.2737 12.4272 24.982 14.8556 24.6856 16.6178C24.4354 18.1053 23.9283 18.7452 22.6623 19.4293L23.1891 20.3023L26.5213 20.7097L26.4111 20.8292L26.3504 20.7744C26.3802 20.8013 26.3954 20.815 26.4031 20.822C26.4111 20.8292 26.4111 20.8292 26.4111 20.8292L26.4087 20.8317L26.402 20.8389C26.3995 20.8416 26.3965 20.8448 26.393 20.8486C26.3882 20.8536 26.3826 20.8596 26.376 20.8665C26.3532 20.8907 26.3194 20.926 26.2756 20.9709C26.188 21.0607 26.0603 21.189 25.8991 21.3433C25.5769 21.6518 25.1207 22.0648 24.585 22.4824C23.5181 23.3139 22.1185 24.1777 20.8276 24.2497C19.9874 24.2966 19.2311 24.3192 18.5485 24.3395L18.5379 24.3399C18.414 24.3436 18.2924 24.3472 18.1733 24.3509C17.3944 24.375 16.7181 24.4019 16.1225 24.4681C14.9328 24.6004 14.0773 24.8886 13.3855 25.6148C13.0333 25.9845 12.7356 26.3722 12.4578 26.7412C12.4313 26.7764 12.405 26.8115 12.3788 26.8464C12.1315 27.1756 11.8966 27.4884 11.6524 27.7508C11.3818 28.0415 11.0943 28.2766 10.7564 28.4073C10.4165 28.5388 10.0331 28.5618 9.5763 28.4411C9.26829 28.3598 9.05602 28.2196 8.93488 28.025C8.81401 27.8309 8.79237 27.5964 8.83697 27.3437C8.92542 26.8425 9.28046 26.2353 9.72993 25.626C10.4069 24.7083 11.3231 23.7544 11.9446 23.1074L11.9448 23.1072C12.1302 22.9142 12.2893 22.7485 12.4081 22.6191L11.6878 21.0397L11.5727 20.7396Z" fill="#610404"/>
<path d="M19.4447 18.9396C16.5883 19.9319 14.1619 17.7407 14.1619 17.7407L13.8552 17.3618C13.8552 17.3618 13.3547 17.7456 12.9884 17.9057C12.3214 18.1972 11.8637 18.2575 11.1444 18.1648C10.1636 18.0384 9.40284 17.8151 8.9342 16.9562C8.50782 16.1747 8.28846 15.2607 8.97159 14.672C9.47215 14.2406 9.99689 14.334 10.6479 14.4364C11.638 14.5921 11.9141 15.6089 12.7236 15.9172C13.5331 16.2254 13.8971 15.7522 13.8971 15.7522C13.8971 15.7522 12.0551 11.5376 12.0837 11.1116C12.1124 10.6855 12.4366 10.5556 12.4366 10.5556C12.4366 10.5556 11.8565 10.0463 11.9072 9.78592C11.9579 9.52558 17.9574 6.48788 17.9574 6.48788C17.9574 6.48788 19.4419 7.37651 19.4463 8.05112C19.4508 8.72574 19.4001 8.98608 20.053 9.40075C20.7059 9.81542 22.8257 11.6276 22.8257 11.6276L21.1693 13.2953L22.1134 13.3314C22.1134 13.3314 23.52 16.2005 23.1127 16.9892C22.7055 17.778 22.3011 17.9473 19.4447 18.9396Z" fill="#D9D9D9" stroke="white" stroke-width="0.259334"/>
<path d="M20.8495 20.5365C20.9214 20.5915 20.9934 20.6492 21.0638 20.7088C21.3212 20.9267 21.5506 21.1663 21.6754 21.4003C21.799 21.632 21.8135 21.8426 21.6733 22.0278C21.529 22.2186 21.3661 22.3099 21.1761 22.3777C21.0947 22.4068 21.0097 22.4312 20.9179 22.4575L20.9179 22.4575L20.8645 22.4728C20.753 22.5049 20.6335 22.541 20.5079 22.5909C20.4137 22.6284 19.2815 22.8452 19.2815 22.8452C19.2815 22.8452 16.1703 23.5725 14.8743 22.4518C14.413 22.0528 13.936 21.2071 13.936 21.2071C13.7668 20.8572 13.6184 20.3781 13.5118 19.9829C13.4638 19.8051 13.4246 19.6454 13.396 19.5237C13.6659 19.4955 13.8853 19.5987 14.1312 19.7144L14.1312 19.7144C14.2549 19.7726 14.3854 19.8339 14.5323 19.8833C15.0181 20.0465 15.393 20.2744 15.7516 20.4924L15.7516 20.4924C16.2768 20.8117 16.7669 21.1097 17.519 21.1516C18.6442 21.2143 19.7628 20.953 20.8495 20.5365Z" fill="#D9D9D9"/>
<path d="M15.6246 11.3828L15.0113 10.625C15.0113 10.625 15.6239 9.7346 16.3149 9.51331C16.9127 9.32186 17.7618 9.47876 17.7618 9.47876L17.828 9.97588C17.828 9.97588 17.1958 10.0349 16.8332 10.2001C16.2311 10.4745 15.6246 11.3828 15.6246 11.3828Z" fill="#171E1E"/>
<path d="M21.0815 15.1737C20.3492 15.4454 19.7404 15.3622 19.7404 15.3622C19.7404 15.3622 19.5034 15.6726 19.4713 15.9064C19.4446 16.101 19.5375 16.4036 19.5375 16.4036C19.5375 16.4036 21.1578 16.3881 21.5381 16.038C21.9992 15.6135 22.3608 15.1627 22.3608 15.1627L22.2108 14.6774C22.2108 14.6774 21.455 15.0351 21.0815 15.1737Z" fill="#171E1E"/>
<ellipse cx="0.925269" cy="0.841153" rx="0.925269" ry="0.841153" transform="matrix(0.797352 0.597482 -0.611859 0.795534 17.2246 10.4827)" fill="#171E1E"/>
<path d="M48.6293 15.0549C49.3929 15.2967 49.991 15.7039 50.4237 16.2766C50.8563 16.8365 51.0727 17.53 51.0727 18.3572C51.0727 19.5279 50.6145 20.4315 49.6983 21.0678C48.7948 21.6913 47.4713 22.0031 45.7279 22.0031H38.8179V8.64117H45.3461C46.975 8.64117 48.2221 8.95295 49.0875 9.57651C49.9655 10.2001 50.4046 11.0463 50.4046 12.1153C50.4046 12.7643 50.2455 13.3433 49.9274 13.8523C49.6219 14.3613 49.1893 14.7622 48.6293 15.0549ZM41.8911 10.97V14.1196H44.9644C45.7279 14.1196 46.3069 13.9859 46.7014 13.7187C47.0959 13.4515 47.2931 13.057 47.2931 12.5352C47.2931 12.0135 47.0959 11.6253 46.7014 11.3708C46.3069 11.1036 45.7279 10.97 44.9644 10.97H41.8911ZM45.4988 19.6743C46.3133 19.6743 46.9241 19.5407 47.3313 19.2734C47.7513 19.0062 47.9612 18.5926 47.9612 18.0327C47.9612 16.9256 47.1404 16.372 45.4988 16.372H41.8911V19.6743H45.4988Z" fill="black"/>
<path d="M61.9273 22.0031L59.3503 18.2808H56.5062V22.0031H53.4138V8.64117H59.1976C60.3811 8.64117 61.4055 8.83842 62.2709 9.23291C63.1489 9.62741 63.8234 10.1873 64.2942 10.9127C64.7651 11.6381 65.0005 12.497 65.0005 13.4896C65.0005 14.4822 64.7587 15.3412 64.2752 16.0666C63.8043 16.7792 63.1298 17.3264 62.2518 17.7082L65.2487 22.0031H61.9273ZM61.87 13.4896C61.87 12.7388 61.6282 12.1662 61.1446 11.7717C60.6611 11.3645 59.9548 11.1608 59.0258 11.1608H56.5062V15.8184H59.0258C59.9548 15.8184 60.6611 15.6148 61.1446 15.2076C61.6282 14.8004 61.87 14.2277 61.87 13.4896Z" fill="black"/>
<path d="M79.3999 8.64117V22.0031H76.403V20.3806C75.4868 21.615 74.1379 22.2321 72.3563 22.2321C70.7783 22.2321 69.5439 21.7358 68.6531 20.7432C67.7751 19.7379 67.336 18.3127 67.336 16.4674V8.64117H70.4283V16.372C70.4283 17.4409 70.6765 18.249 71.1728 18.7962C71.6818 19.3307 72.369 19.5979 73.2343 19.5979C74.1633 19.5979 74.9078 19.3116 75.4677 18.739C76.0276 18.1536 76.3076 17.2946 76.3076 16.162V8.64117H79.3999Z" fill="black"/>
<path d="M89.6503 8.41211C91.241 8.41211 92.4817 8.91477 93.3725 9.9201C94.2633 10.9127 94.7087 12.3316 94.7087 14.1768V22.0031H91.6164V14.2723C91.6164 13.2033 91.3619 12.4016 90.8528 11.8671C90.3565 11.3199 89.663 11.0463 88.7722 11.0463C87.8305 11.0463 87.0733 11.339 86.5007 11.9244C85.9407 12.497 85.6608 13.3497 85.6608 14.4822V22.0031H82.5685V8.64117H85.5653V10.2637C86.0235 9.65286 86.5961 9.19473 87.2833 8.88932C87.9705 8.57118 88.7595 8.41211 89.6503 8.41211Z" fill="black"/>
<path d="M104.232 22.2321C102.845 22.2321 101.591 21.9331 100.471 21.335C99.3644 20.7369 98.4926 19.9161 97.8564 18.8726C97.2328 17.8164 96.921 16.6329 96.921 15.3221C96.921 14.0114 97.2328 12.8343 97.8564 11.7908C98.4926 10.7345 99.3644 9.90737 100.471 9.30927C101.591 8.71116 102.845 8.41211 104.232 8.41211C105.619 8.41211 106.866 8.71116 107.973 9.30927C109.08 9.90737 109.952 10.7345 110.588 11.7908C111.225 12.8343 111.543 14.0114 111.543 15.3221C111.543 16.6329 111.225 17.8164 110.588 18.8726C109.952 19.9161 109.08 20.7369 107.973 21.335C106.866 21.9331 105.619 22.2321 104.232 22.2321ZM104.232 19.5979C105.021 19.5979 105.734 19.4198 106.37 19.0635C107.006 18.6944 107.502 18.1854 107.859 17.5364C108.228 16.8874 108.412 16.1493 108.412 15.3221C108.412 14.495 108.228 13.7569 107.859 13.1079C107.502 12.4589 107.006 11.9562 106.37 11.5999C105.734 11.2308 105.021 11.0463 104.232 11.0463C103.443 11.0463 102.73 11.2308 102.094 11.5999C101.458 11.9562 100.955 12.4589 100.586 13.1079C100.23 13.7569 100.052 14.495 100.052 15.3221C100.052 16.1493 100.23 16.8874 100.586 17.5364C100.955 18.1854 101.458 18.6944 102.094 19.0635C102.73 19.4198 103.443 19.5979 104.232 19.5979Z" fill="black"/>
<path d="M125.877 8.64117C127.06 8.64117 128.084 8.83842 128.95 9.23291C129.828 9.62741 130.502 10.1873 130.973 10.9127C131.444 11.6381 131.679 12.497 131.679 13.4896C131.679 14.4695 131.444 15.3285 130.973 16.0666C130.502 16.7919 129.828 17.3519 128.95 17.7464C128.084 18.1281 127.06 18.319 125.877 18.319H123.185V22.0031H120.093V8.64117H125.877ZM125.705 15.7993C126.634 15.7993 127.34 15.6021 127.824 15.2076C128.307 14.8004 128.549 14.2277 128.549 13.4896C128.549 12.7388 128.307 12.1662 127.824 11.7717C127.34 11.3645 126.634 11.1608 125.705 11.1608H123.185V15.7993H125.705Z" fill="black"/>
<path d="M145.781 8.64117V22.0031H142.784V20.3806C141.867 21.615 140.519 22.2321 138.737 22.2321C137.159 22.2321 135.925 21.7358 135.034 20.7432C134.156 19.7379 133.717 18.3127 133.717 16.4674V8.64117H136.809V16.372C136.809 17.4409 137.057 18.249 137.553 18.7962C138.063 19.3307 138.75 19.5979 139.615 19.5979C140.544 19.5979 141.288 19.3116 141.848 18.739C142.408 18.1536 142.688 17.2946 142.688 16.162V8.64117H145.781Z" fill="black"/>
<path d="M148.949 8.64117H152.041V19.4834H158.742V22.0031H148.949V8.64117Z" fill="black"/>
<path d="M165.051 11.1227V19.5216H167.36V22.0031H159.629V19.5216H161.958V11.1227H159.629V8.64117H167.36V11.1227H165.051Z" fill="black"/>
<path d="M174.087 22.2321C173.031 22.2321 172.006 22.0922 171.014 21.8122C170.034 21.5195 169.245 21.1441 168.647 20.686L169.697 18.3572C170.269 18.7771 170.95 19.1144 171.739 19.3689C172.528 19.6234 173.317 19.7507 174.106 19.7507C174.984 19.7507 175.633 19.6234 176.053 19.3689C176.473 19.1016 176.683 18.7517 176.683 18.319C176.683 18.0009 176.556 17.74 176.301 17.5364C176.059 17.3201 175.741 17.1483 175.347 17.021C174.965 16.8937 174.443 16.7538 173.782 16.6011C172.764 16.3593 171.93 16.1175 171.281 15.8757C170.632 15.6339 170.072 15.2458 169.601 14.7113C169.143 14.1768 168.914 13.4642 168.914 12.5734C168.914 11.7971 169.124 11.0972 169.544 10.4737C169.964 9.83738 170.594 9.33472 171.434 8.96568C172.286 8.59663 173.323 8.41211 174.545 8.41211C175.398 8.41211 176.231 8.51392 177.046 8.71753C177.86 8.92114 178.573 9.21383 179.184 9.59559L178.229 11.9435C176.995 11.2436 175.76 10.8936 174.526 10.8936C173.661 10.8936 173.018 11.0336 172.598 11.3136C172.191 11.5935 171.987 11.9626 171.987 12.4207C171.987 12.8788 172.223 13.2224 172.694 13.4515C173.177 13.6678 173.909 13.8841 174.889 14.1005C175.907 14.3423 176.74 14.584 177.389 14.8258C178.038 15.0676 178.592 15.4494 179.05 15.9711C179.521 16.4929 179.756 17.1992 179.756 18.09C179.756 18.8535 179.54 19.5534 179.107 20.1897C178.687 20.8132 178.051 21.3095 177.198 21.6786C176.346 22.0476 175.309 22.2321 174.087 22.2321Z" fill="black"/>
</svg>
