<svg xmlns="http://www.w3.org/2000/svg" xmlns:xlink="http://www.w3.org/1999/xlink" width="180" zoomAndPan="magnify" viewBox="0 0 135 44.999999" height="60" preserveAspectRatio="xMidYMid meet" version="1.2"><g id="29ae216287"><path style="fill:none;stroke-width:2.319;stroke-linecap:butt;stroke-linejoin:round;stroke:#ffffff;stroke-opacity:1;stroke-miterlimit:4;" d="M 182.298404 272.592803 C 182.281109 272.523629 182.263813 272.471748 182.246517 272.402574 C 182.211926 272.264226 182.194631 272.177758 182.194631 272.09129 C 182.177335 271.987529 182.160039 271.918354 182.125448 271.7973 C 182.090857 271.624364 182.056266 271.503309 182.021675 271.416841 C 181.969788 271.278493 181.917901 271.209319 181.779536 271.140144 C 180.914756 270.82886 176.936769 269.289733 172.61287 266.764874 C 168.167901 264.153546 163.117587 260.366257 160.886454 255.593235 C 159.520102 252.70521 158.672618 250.163057 158.326706 247.534436 C 157.980794 244.888521 158.136454 242.225313 158.672618 239.060592 C 160.004379 231.313077 163.290543 227.404733 168.496517 221.836207 C 171.592429 218.515844 175.605008 216.129332 179.323561 214.538325 C 183.059411 212.947317 186.605008 212.099933 188.888027 211.926997 C 191.136455 211.754062 195.131738 211.875117 199.386455 212.964611 C 203.641172 214.054105 208.241801 216.146626 211.493373 220.037677 C 213.136455 221.991849 213.897461 223.807673 214.623876 225.519735 L 214.641172 225.554322 C 215.246518 226.989688 215.834568 228.355879 216.872304 229.860418 C 218.463499 232.177755 220.694631 234.719909 222.54526 236.691374 C 223.461927 237.659814 224.292115 238.489904 224.880166 239.077885 C 225.174191 239.371876 225.399033 239.596692 225.571989 239.752334 C 225.658467 239.838802 225.710354 239.890683 225.762241 239.942563 L 225.814128 239.994444 C 226.229222 240.392196 226.298405 241.032058 225.969788 241.498984 L 224.015386 244.30054 C 224.15375 244.508063 224.309411 244.767466 224.482367 245.044163 C 225.01853 245.926135 225.72765 247.171271 226.402178 248.606637 C 227.716644 251.408193 229.048405 255.195483 228.494945 258.53314 C 228.04526 261.10988 227.370732 263.098639 226.16004 264.741527 C 225.156895 266.125012 223.84243 267.179919 222.164757 268.182946 L 223.029537 269.618311 L 233.649034 270.915328 C 234.081423 270.967209 234.444631 271.261199 234.582996 271.658951 C 234.738656 272.073996 234.652178 272.523629 234.340857 272.852207 L 233.97765 273.249959 M 182.298404 272.592803 L 233.97765 273.249959 M 182.298404 272.592803 L 182.678907 273.59583 C 182.696203 273.59583 182.696203 273.613123 182.696203 273.630417 C 182.696203 273.630417 182.713499 273.64771 182.713499 273.665004 L 184.806266 278.247797 C 184.512241 278.559081 184.166329 278.904952 183.803121 279.302704 L 183.785826 279.302704 L 183.76853 279.319998 C 181.710354 281.481693 178.579851 284.715588 176.279536 287.863016 C 174.757524 289.92095 173.408467 292.134525 173.062555 294.105991 C 172.889599 295.143605 172.941486 296.233099 173.546832 297.201538 C 174.169473 298.187271 175.172618 298.792546 176.38331 299.10383 C 178.11287 299.570756 179.652178 299.501581 181.053121 298.948188 C 182.419473 298.429381 183.526392 297.495529 184.494945 296.457915 C 185.359725 295.541356 186.172618 294.451862 186.985511 293.362368 L 187.002807 293.327781 L 187.279536 292.98191 C 188.196203 291.754067 189.164757 290.491637 190.28897 289.315675 C 192.347146 287.15398 194.889599 286.254715 198.763813 285.822376 C 200.70092 285.59756 202.932052 285.511092 205.543687 285.424624 C 205.941486 285.424624 206.339285 285.407331 206.754379 285.390037 L 206.806266 285.390037 C 209.089285 285.320863 211.631738 285.251689 214.468216 285.096047 C 219.189914 284.836643 224.119159 281.723803 227.716644 278.922246 C 229.549977 277.486881 231.106581 276.086102 232.213499 275.031195 C 232.766958 274.495095 233.199348 274.062756 233.510669 273.751472 C 233.649034 273.59583 233.770103 273.474775 233.856581 273.388307 M 182.298404 272.592803 L 233.856581 273.388307 M 233.97765 273.249959 L 233.97765 273.249959 M 233.97765 273.249959 L 233.97765 273.249959 M 233.97765 273.249959 L 233.97765 273.267252 L 233.960354 273.267252 L 233.908468 273.319133 L 233.856581 273.388307 M 233.97765 273.249959 L 233.856581 273.388307 M 233.891172 271.589777 L 233.891172 271.572483 Z M 233.891172 271.589777 " transform="matrix(0.225852,0,0,0.225879,-33.258446,-34.41671)"/><path style=" stroke:none;fill-rule:nonzero;fill:#ffffff;fill-opacity:1;" d="M 15.183594 26.90625 C 15.238281 26.945312 15.292969 26.992188 15.347656 27.035156 C 15.539062 27.199219 15.714844 27.382812 15.808594 27.558594 C 15.902344 27.734375 15.914062 27.894531 15.808594 28.035156 C 15.699219 28.179688 15.574219 28.25 15.429688 28.300781 C 15.371094 28.320312 15.304688 28.339844 15.234375 28.359375 L 15.195312 28.371094 C 15.109375 28.394531 15.019531 28.421875 14.925781 28.460938 C 14.851562 28.488281 13.996094 28.652344 13.996094 28.652344 C 13.996094 28.652344 11.640625 29.203125 10.660156 28.355469 C 10.308594 28.054688 9.949219 27.414062 9.949219 27.414062 C 9.820312 27.148438 9.707031 26.785156 9.628906 26.484375 C 9.589844 26.351562 9.5625 26.230469 9.539062 26.136719 C 9.742188 26.117188 9.910156 26.195312 10.097656 26.28125 C 10.191406 26.328125 10.289062 26.375 10.398438 26.410156 C 10.769531 26.535156 11.050781 26.707031 11.324219 26.871094 C 11.722656 27.113281 12.09375 27.339844 12.660156 27.371094 C 13.515625 27.417969 14.359375 27.222656 15.183594 26.90625 Z M 15.183594 26.90625 "/><path style=" stroke:none;fill-rule:evenodd;fill:#ffffff;fill-opacity:1;" d="M 10.121094 24.789062 C 10.121094 24.789062 11.957031 26.449219 14.121094 25.695312 C 16.28125 24.945312 16.589844 24.816406 16.898438 24.21875 C 17.207031 23.621094 16.140625 21.449219 16.140625 21.449219 L 15.425781 21.421875 L 16.679688 20.160156 C 16.679688 20.160156 15.074219 18.785156 14.582031 18.472656 C 14.121094 18.179688 14.121094 17.988281 14.121094 17.554688 C 14.121094 17.523438 14.121094 17.488281 14.121094 17.449219 C 14.117188 16.9375 12.992188 16.265625 12.992188 16.265625 C 12.992188 16.265625 8.449219 18.566406 8.410156 18.765625 C 8.375 18.960938 8.8125 19.347656 8.8125 19.347656 C 8.8125 19.347656 8.566406 19.445312 8.546875 19.769531 C 8.523438 20.089844 9.917969 23.28125 9.917969 23.28125 C 9.917969 23.28125 9.644531 23.640625 9.03125 23.40625 C 8.761719 23.304688 8.570312 23.097656 8.375 22.886719 C 8.128906 22.621094 7.878906 22.351562 7.457031 22.285156 C 7.449219 22.285156 7.4375 22.28125 7.429688 22.28125 C 6.949219 22.207031 6.558594 22.144531 6.1875 22.464844 C 5.671875 22.910156 5.839844 23.601562 6.160156 24.195312 C 6.515625 24.84375 7.089844 25.011719 7.835938 25.109375 C 8.378906 25.179688 8.726562 25.132812 9.230469 24.914062 C 9.507812 24.792969 9.886719 24.5 9.886719 24.5 Z M 11.226562 19.972656 L 10.761719 19.398438 C 10.761719 19.398438 11.226562 18.726562 11.75 18.558594 C 12.203125 18.414062 12.84375 18.53125 12.84375 18.53125 L 12.894531 18.90625 C 12.894531 18.90625 12.417969 18.953125 12.140625 19.078125 C 11.6875 19.285156 11.226562 19.972656 11.226562 19.972656 Z M 15.359375 22.84375 C 14.804688 23.050781 14.34375 22.988281 14.34375 22.988281 C 14.34375 22.988281 14.164062 23.222656 14.140625 23.398438 C 14.121094 23.546875 14.191406 23.773438 14.191406 23.773438 C 14.191406 23.773438 15.417969 23.765625 15.707031 23.5 C 16.054688 23.175781 16.328125 22.835938 16.328125 22.835938 L 16.214844 22.46875 C 16.214844 22.46875 15.640625 22.738281 15.359375 22.84375 Z M 13.167969 20.636719 C 12.949219 20.914062 12.527344 20.953125 12.21875 20.722656 C 11.910156 20.492188 11.832031 20.078125 12.046875 19.796875 C 12.265625 19.519531 12.6875 19.480469 12.996094 19.710938 C 13.304688 19.941406 13.382812 20.355469 13.167969 20.636719 Z M 13.167969 20.636719 "/><path style=" stroke:none;fill-rule:nonzero;fill:#ffffff;fill-opacity:1;" d="M 33.507812 22.753906 C 34.085938 22.9375 34.539062 23.246094 34.867188 23.679688 C 35.195312 24.101562 35.359375 24.628906 35.359375 25.253906 C 35.359375 26.140625 35.011719 26.824219 34.320312 27.308594 C 33.632812 27.78125 32.632812 28.015625 31.3125 28.015625 L 26.078125 28.015625 L 26.078125 17.898438 L 31.023438 17.898438 C 32.257812 17.898438 33.199219 18.132812 33.855469 18.605469 C 34.519531 19.078125 34.855469 19.71875 34.855469 20.527344 C 34.855469 21.019531 34.734375 21.457031 34.492188 21.84375 C 34.261719 22.230469 33.933594 22.53125 33.507812 22.753906 Z M 28.40625 19.660156 L 28.40625 22.046875 L 30.734375 22.046875 C 31.3125 22.046875 31.75 21.945312 32.050781 21.742188 C 32.347656 21.539062 32.496094 21.242188 32.496094 20.847656 C 32.496094 20.449219 32.347656 20.15625 32.050781 19.964844 C 31.75 19.761719 31.3125 19.660156 30.734375 19.660156 Z M 31.140625 26.253906 C 31.753906 26.253906 32.21875 26.152344 32.527344 25.949219 C 32.84375 25.746094 33.003906 25.433594 33.003906 25.007812 C 33.003906 24.171875 32.382812 23.75 31.140625 23.75 L 28.40625 23.75 L 28.40625 26.253906 Z M 31.140625 26.253906 "/><path style=" stroke:none;fill-rule:nonzero;fill:#ffffff;fill-opacity:1;" d="M 43.578125 28.015625 L 41.628906 25.195312 L 39.472656 25.195312 L 39.472656 28.015625 L 37.132812 28.015625 L 37.132812 17.898438 L 41.511719 17.898438 C 42.40625 17.898438 43.183594 18.046875 43.839844 18.34375 C 44.503906 18.644531 45.015625 19.066406 45.371094 19.617188 C 45.726562 20.167969 45.90625 20.816406 45.90625 21.570312 C 45.90625 22.320312 45.722656 22.972656 45.355469 23.519531 C 45 24.058594 44.488281 24.472656 43.824219 24.761719 L 46.09375 28.015625 Z M 43.535156 21.570312 C 43.535156 21 43.351562 20.566406 42.988281 20.269531 C 42.621094 19.960938 42.085938 19.804688 41.382812 19.804688 L 39.472656 19.804688 L 39.472656 23.332031 L 41.382812 23.332031 C 42.085938 23.332031 42.621094 23.179688 42.988281 22.871094 C 43.351562 22.5625 43.535156 22.128906 43.535156 21.570312 Z M 43.535156 21.570312 "/><path style=" stroke:none;fill-rule:nonzero;fill:#ffffff;fill-opacity:1;" d="M 56.808594 17.898438 L 56.808594 28.015625 L 54.539062 28.015625 L 54.539062 26.789062 C 53.847656 27.722656 52.824219 28.191406 51.476562 28.191406 C 50.28125 28.191406 49.347656 27.8125 48.671875 27.0625 C 48.007812 26.300781 47.675781 25.222656 47.675781 23.824219 L 47.675781 17.898438 L 50.015625 17.898438 L 50.015625 23.75 C 50.015625 24.5625 50.203125 25.171875 50.582031 25.585938 C 50.964844 25.992188 51.484375 26.195312 52.140625 26.195312 C 52.84375 26.195312 53.410156 25.976562 53.832031 25.542969 C 54.257812 25.101562 54.46875 24.449219 54.46875 23.59375 L 54.46875 17.898438 Z M 56.808594 17.898438 "/><path style=" stroke:none;fill-rule:nonzero;fill:#ffffff;fill-opacity:1;" d="M 64.570312 17.722656 C 65.777344 17.722656 66.714844 18.105469 67.390625 18.867188 C 68.066406 19.617188 68.402344 20.691406 68.402344 22.089844 L 68.402344 28.015625 L 66.0625 28.015625 L 66.0625 22.160156 C 66.0625 21.351562 65.867188 20.746094 65.484375 20.339844 C 65.105469 19.925781 64.582031 19.71875 63.90625 19.71875 C 63.195312 19.71875 62.621094 19.941406 62.1875 20.382812 C 61.761719 20.816406 61.550781 21.460938 61.550781 22.320312 L 61.550781 28.015625 L 59.210938 28.015625 L 59.210938 17.898438 L 61.480469 17.898438 L 61.480469 19.125 C 61.824219 18.664062 62.257812 18.316406 62.78125 18.085938 C 63.300781 17.84375 63.898438 17.722656 64.570312 17.722656 Z M 64.570312 17.722656 "/><path style=" stroke:none;fill-rule:nonzero;fill:#ffffff;fill-opacity:1;" d="M 75.613281 28.191406 C 74.5625 28.191406 73.613281 27.964844 72.765625 27.511719 C 71.929688 27.058594 71.269531 26.4375 70.785156 25.644531 C 70.3125 24.84375 70.078125 23.949219 70.078125 22.957031 C 70.078125 21.964844 70.3125 21.074219 70.785156 20.28125 C 71.269531 19.480469 71.929688 18.855469 72.765625 18.402344 C 73.613281 17.949219 74.5625 17.722656 75.613281 17.722656 C 76.664062 17.722656 77.609375 17.949219 78.445312 18.402344 C 79.285156 18.855469 79.945312 19.480469 80.425781 20.28125 C 80.910156 21.074219 81.148438 21.964844 81.148438 22.957031 C 81.148438 23.949219 80.910156 24.84375 80.425781 25.644531 C 79.945312 26.4375 79.285156 27.058594 78.445312 27.511719 C 77.609375 27.964844 76.664062 28.191406 75.613281 28.191406 Z M 75.613281 26.195312 C 76.210938 26.195312 76.75 26.058594 77.234375 25.789062 C 77.714844 25.511719 78.089844 25.125 78.359375 24.632812 C 78.640625 24.140625 78.78125 23.582031 78.78125 22.957031 C 78.78125 22.332031 78.640625 21.769531 78.359375 21.28125 C 78.089844 20.789062 77.714844 20.40625 77.234375 20.136719 C 76.75 19.859375 76.210938 19.71875 75.613281 19.71875 C 75.015625 19.71875 74.476562 19.859375 73.996094 20.136719 C 73.511719 20.40625 73.132812 20.789062 72.851562 21.28125 C 72.582031 21.769531 72.449219 22.332031 72.449219 22.957031 C 72.449219 23.582031 72.582031 24.140625 72.851562 24.632812 C 73.132812 25.125 73.511719 25.511719 73.996094 25.789062 C 74.476562 26.058594 75.015625 26.195312 75.613281 26.195312 Z M 75.613281 26.195312 "/><path style=" stroke:none;fill-rule:nonzero;fill:#ffffff;fill-opacity:1;" d="M 92.003906 17.898438 C 92.898438 17.898438 93.675781 18.046875 94.332031 18.34375 C 94.996094 18.644531 95.507812 19.066406 95.863281 19.617188 C 96.21875 20.167969 96.398438 20.816406 96.398438 21.570312 C 96.398438 22.3125 96.21875 22.960938 95.863281 23.519531 C 95.507812 24.070312 94.996094 24.492188 94.332031 24.792969 C 93.675781 25.082031 92.898438 25.226562 92.003906 25.226562 L 89.964844 25.226562 L 89.964844 28.015625 L 87.625 28.015625 L 87.625 17.898438 Z M 91.875 23.316406 C 92.578125 23.316406 93.113281 23.167969 93.480469 22.871094 C 93.84375 22.5625 94.027344 22.128906 94.027344 21.570312 C 94.027344 21 93.84375 20.566406 93.480469 20.269531 C 93.113281 19.960938 92.578125 19.804688 91.875 19.804688 L 89.964844 19.804688 L 89.964844 23.316406 Z M 91.875 23.316406 "/><path style=" stroke:none;fill-rule:nonzero;fill:#ffffff;fill-opacity:1;" d="M 107.078125 17.898438 L 107.078125 28.015625 L 104.808594 28.015625 L 104.808594 26.789062 C 104.113281 27.722656 103.089844 28.191406 101.742188 28.191406 C 100.546875 28.191406 99.613281 27.8125 98.9375 27.0625 C 98.273438 26.300781 97.941406 25.222656 97.941406 23.824219 L 97.941406 17.898438 L 100.28125 17.898438 L 100.28125 23.75 C 100.28125 24.5625 100.46875 25.171875 100.847656 25.585938 C 101.230469 25.992188 101.753906 26.195312 102.40625 26.195312 C 103.109375 26.195312 103.675781 25.976562 104.097656 25.542969 C 104.523438 25.101562 104.734375 24.449219 104.734375 23.59375 L 104.734375 17.898438 Z M 107.078125 17.898438 "/><path style=" stroke:none;fill-rule:nonzero;fill:#ffffff;fill-opacity:1;" d="M 109.476562 17.898438 L 111.816406 17.898438 L 111.816406 26.109375 L 116.890625 26.109375 L 116.890625 28.015625 L 109.476562 28.015625 Z M 109.476562 17.898438 "/><path style=" stroke:none;fill-rule:nonzero;fill:#ffffff;fill-opacity:1;" d="M 121.667969 19.777344 L 121.667969 26.136719 L 123.417969 26.136719 L 123.417969 28.015625 L 117.5625 28.015625 L 117.5625 26.136719 L 119.328125 26.136719 L 119.328125 19.777344 L 117.5625 19.777344 L 117.5625 17.898438 L 123.417969 17.898438 L 123.417969 19.777344 Z M 121.667969 19.777344 "/><path style=" stroke:none;fill-rule:nonzero;fill:#ffffff;fill-opacity:1;" d="M 128.511719 28.191406 C 127.710938 28.191406 126.933594 28.082031 126.183594 27.871094 C 125.441406 27.648438 124.84375 27.367188 124.390625 27.019531 L 125.1875 25.253906 C 125.621094 25.574219 126.136719 25.828125 126.734375 26.019531 C 127.332031 26.214844 127.929688 26.308594 128.527344 26.308594 C 129.191406 26.308594 129.683594 26.214844 130 26.019531 C 130.316406 25.820312 130.476562 25.554688 130.476562 25.226562 C 130.476562 24.984375 130.378906 24.789062 130.1875 24.632812 C 130.003906 24.46875 129.765625 24.339844 129.464844 24.242188 C 129.175781 24.148438 128.78125 24.039062 128.28125 23.925781 C 127.507812 23.742188 126.878906 23.558594 126.386719 23.375 C 125.894531 23.191406 125.472656 22.898438 125.113281 22.492188 C 124.765625 22.089844 124.59375 21.550781 124.59375 20.875 C 124.59375 20.285156 124.753906 19.757812 125.070312 19.285156 C 125.390625 18.804688 125.867188 18.421875 126.5 18.144531 C 127.148438 17.863281 127.933594 17.722656 128.859375 17.722656 C 129.503906 17.722656 130.136719 17.800781 130.75 17.953125 C 131.367188 18.109375 131.90625 18.332031 132.371094 18.621094 L 131.648438 20.398438 C 130.714844 19.867188 129.777344 19.601562 128.84375 19.601562 C 128.1875 19.601562 127.703125 19.707031 127.382812 19.921875 C 127.074219 20.132812 126.921875 20.414062 126.921875 20.757812 C 126.921875 21.105469 127.097656 21.367188 127.457031 21.539062 C 127.820312 21.703125 128.375 21.867188 129.117188 22.03125 C 129.890625 22.214844 130.519531 22.398438 131.011719 22.582031 C 131.503906 22.765625 131.921875 23.054688 132.269531 23.449219 C 132.625 23.84375 132.804688 24.378906 132.804688 25.050781 C 132.804688 25.632812 132.640625 26.160156 132.3125 26.644531 C 131.996094 27.113281 131.511719 27.492188 130.867188 27.769531 C 130.222656 28.050781 129.4375 28.191406 128.511719 28.191406 Z M 128.511719 28.191406 "/></g></svg>