<svg width="136" height="30" viewBox="0 0 136 30" fill="currentColor" xmlns="http://www.w3.org/2000/svg">
  <path d="M128.664 25.5882C128.664 23.641 130.263 22.0503 132.221 22.0503H132.304C134.4 22.0503 136 23.6136 136 25.5882C135.945 27.5903 134.262 29.181 132.221 29.1262C130.291 29.0713 128.719 27.508 128.664 25.5882Z" fill="#0153FF"/>
  <path d="M60.6222 20.3225H46.0045C46.3906 22.8731 48.3764 24.5187 51.0241 24.5187C53.2306 24.5187 54.6372 23.5588 54.9406 22.2149H60.4567C59.8223 26.4385 56.099 29.1811 51.162 29.1811C45.5356 29.2633 40.902 24.7655 40.8193 19.1706V18.8964C40.8193 13.1918 45.3149 8.80369 51.0517 8.80369C56.3748 8.80369 60.7601 12.945 60.7601 18.3204C60.7325 18.9787 60.7049 19.6643 60.6222 20.3225ZM54.8578 16.7297C54.6923 14.7277 52.8996 13.3289 50.8035 13.3289C48.7074 13.3289 46.9698 14.3986 46.2803 16.7297H54.8578ZM74.0539 28.7697H69.2273L61.0635 9.21507H67.1864L71.6268 21.1179L75.9846 9.18765H82.1902L74.0539 28.7697ZM102.296 20.3225H87.6788C88.0925 22.8731 90.0507 24.5187 92.6984 24.5187C94.9049 24.5187 96.3115 23.5588 96.6149 22.2149H102.131C101.497 26.4385 97.7733 29.1811 92.8363 29.1811C87.2099 29.2633 82.5763 24.7655 82.4936 19.1706V18.8964C82.4936 13.1918 86.9892 8.80369 92.6984 8.80369C98.0215 8.80369 102.407 12.945 102.407 18.3204C102.407 18.9787 102.379 19.6643 102.296 20.3225ZM96.5321 16.7297C96.3667 14.7277 94.5739 13.3289 92.4778 13.3289C90.3817 13.3289 88.6165 14.3986 87.9546 16.7297H96.5321ZM124.664 17.6897V28.7697H119.01V18.4027C119.01 15.8521 117.438 14.1791 115.121 14.1791C112.805 14.1791 111.233 15.8521 111.233 18.4027V28.7697H105.579V9.18765H111.233V11.7383C112.474 9.87329 114.322 8.77626 116.556 8.77626C121.603 8.80369 124.664 12.1496 124.664 17.6897ZM32.2142 2.19407V28.7697H37.8682V0L32.2142 2.19407ZM19.8029 20.3225H5.18515C5.59886 22.8731 7.55709 24.5187 10.2048 24.5187C12.4113 24.5187 13.8179 23.5588 14.1213 22.2149H19.6374C19.003 26.4385 15.2797 29.1811 10.3427 29.1811C4.71628 29.2359 0.0827418 24.7655 0 19.1706V18.8964C0 13.1918 4.49564 8.80369 10.2048 8.80369C15.5279 8.80369 19.9132 12.945 19.9132 18.3204C19.9132 18.9787 19.8856 19.6643 19.8029 20.3225ZM14.0385 16.7297C13.873 14.7277 12.0803 13.3289 9.98418 13.3289C7.88805 13.3289 6.1229 14.3986 5.46096 16.7297H14.0385ZM22.5334 5.92398V28.7697H28.1874V3.72991L22.5334 5.92398Z" fill="#000000"/>
</svg>