<?xml version="1.0" encoding="UTF-8"?>
<svg xmlns="http://www.w3.org/2000/svg" xmlns:xlink="http://www.w3.org/1999/xlink" version="1.1" id="Camada_2_00000098188379138180532700000002373734160396083111_" x="0px" y="0px" fill="currentColor" viewBox="0 0 416 130.3" xml:space="preserve">
  <style type="text/css"> .st0{fill: currentColor;} .st1{fill:#FE64DA;} .st2{fill:#3FC8E8;} </style>
  <g id="Camada_1-2" fill="none" fill-rule="evenodd" stroke="none" stroke-width="1">
    <g fill="none" fill-rule="evenodd" stroke="none" stroke-width="1">
      <g fill="none" fill-rule="evenodd" stroke="none" stroke-width="1">
        <path class="st0" d="M213.4,14.3c0.9,0.9,1.3,2.1,1.3,3.5v35.8c0,1.4-0.4,2.5-1.2,3.3s-1.9,1.2-3.1,1.2s-2.3-0.4-3.1-1.2 s-1.2-1.9-1.2-3.3V31.3l-8.9,16.8c-0.6,1.1-1.2,1.9-1.9,2.4s-1.5,0.8-2.5,0.8s-1.7-0.2-2.5-0.8c-0.7-0.5-1.4-1.3-1.9-2.4 l-8.9-16.5v21.9c0,1.3-0.4,2.4-1.2,3.2c-0.8,0.8-1.9,1.2-3.1,1.2s-2.3-0.4-3.1-1.2s-1.2-1.9-1.2-3.3V17.8c0-1.4,0.4-2.6,1.3-3.5 c0.9-0.9,2-1.4,3.4-1.4c2,0,3.6,1.1,4.6,3.2l12.8,24.2l12.7-24.2c1.1-2.1,2.6-3.2,4.5-3.2C211.4,12.9,212.5,13.4,213.4,14.3 L213.4,14.3z"></path>
        <path class="st0" d="M245.6,29.3c2.2,2.2,3.3,5.6,3.3,10.1v14.2c0,1.4-0.4,2.5-1.2,3.2c-0.8,0.8-1.9,1.2-3.3,1.2 c-1.3,0-2.4-0.4-3.2-1.2c-0.8-0.8-1.2-1.9-1.2-3.2v-0.4c-0.6,1.5-1.7,2.8-3.1,3.7s-3.2,1.3-5.2,1.3c-2.1,0-4-0.4-5.7-1.3 s-3.1-2-4-3.5c-1-1.5-1.5-3.2-1.5-5c0-2.3,0.6-4,1.7-5.3s3-2.2,5.6-2.8c2.6-0.6,6.1-0.9,10.5-0.9h1.6v-1.1c0-1.8-0.4-3-1.2-3.8 s-2.1-1.2-3.9-1.2s-4.4,0.6-7.8,1.9c-1,0.5-1.8,0.7-2.5,0.7c-0.9,0-1.7-0.3-2.2-1c-0.6-0.7-0.8-1.5-0.8-2.5 c0-0.8,0.2-1.5,0.6-2.1s1-1,1.8-1.5c1.5-0.8,3.3-1.4,5.4-1.9c2.1-0.5,4.2-0.7,6.3-0.7C240.1,26,243.5,27.1,245.6,29.3L245.6,29.3 z M238.1,49.7c1.1-1.2,1.7-2.8,1.7-4.8v-1.1h-1.1c-3.4,0-5.8,0.3-7.1,0.8s-2.1,1.5-2.1,3c0,1.2,0.4,2.1,1.2,2.9 c0.8,0.7,1.8,1.1,2.9,1.1C235.5,51.6,237,51,238.1,49.7L238.1,49.7z"></path>
        <path class="st0" d="M276.9,26.9c0.7,0.6,1.1,1.6,1.1,2.9c0,1.4-0.3,2.4-1,3.1c-0.7,0.7-1.9,1.1-3.6,1.3l-1.9,0.2 c-2.3,0.2-4,1-5,2.3s-1.5,2.9-1.5,4.8v12c0,1.5-0.5,2.6-1.4,3.3c-0.9,0.8-2,1.1-3.4,1.1s-2.5-0.4-3.4-1.1 c-0.9-0.8-1.4-1.9-1.4-3.3V30.4c0-1.4,0.5-2.5,1.4-3.2c0.9-0.8,2-1.1,3.3-1.1s2.3,0.4,3.1,1.1c0.8,0.7,1.3,1.8,1.3,3.1V32 c0.8-1.8,1.9-3.2,3.4-4.2s3.2-1.5,5-1.6l0.9-0.1C275.2,26,276.2,26.3,276.9,26.9L276.9,26.9z"></path>
        <path class="st0" d="M282.5,19.8c-1-0.9-1.5-2-1.5-3.5s0.5-2.6,1.5-3.5s2.3-1.3,4-1.3s3,0.4,3.9,1.3s1.5,2,1.5,3.4 s-0.5,2.6-1.5,3.5s-2.3,1.3-4,1.3S283.5,20.6,282.5,19.8z M283.1,56.9c-0.9-0.8-1.4-1.9-1.4-3.3v-23c0-1.5,0.5-2.6,1.4-3.3 c0.9-0.8,2.1-1.1,3.4-1.1s2.5,0.4,3.4,1.1c0.9,0.8,1.4,1.9,1.4,3.3v23c0,1.5-0.5,2.6-1.4,3.3c-0.9,0.8-2,1.1-3.4,1.1 S284,57.6,283.1,56.9L283.1,56.9z"></path>
        <path class="st0" d="M321.7,29.3c2.2,2.2,3.3,5.6,3.3,10.1v14.2c0,1.4-0.4,2.5-1.2,3.2c-0.8,0.8-1.9,1.2-3.3,1.2 c-1.3,0-2.4-0.4-3.2-1.2c-0.8-0.8-1.2-1.9-1.2-3.2v-0.4c-0.6,1.5-1.7,2.8-3.1,3.7s-3.2,1.3-5.2,1.3c-2.1,0-4-0.4-5.7-1.3 s-3-2-4-3.5c-1-1.5-1.5-3.2-1.5-5c0-2.3,0.6-4,1.7-5.3c1.1-1.3,3-2.2,5.6-2.8c2.6-0.6,6.1-0.9,10.5-0.9h1.6v-1.1 c0-1.8-0.4-3-1.2-3.8c-0.8-0.8-2.1-1.2-3.9-1.2s-4.4,0.6-7.8,1.9c-1,0.5-1.8,0.7-2.5,0.7c-0.9,0-1.7-0.3-2.2-1 c-0.5-0.7-0.8-1.5-0.8-2.5c0-0.8,0.2-1.5,0.6-2.1s1-1,1.8-1.5c1.5-0.8,3.3-1.4,5.4-1.9c2.1-0.5,4.2-0.7,6.3-0.7 C316.2,26,319.5,27.1,321.7,29.3L321.7,29.3z M314.2,49.7c1.1-1.2,1.7-2.8,1.7-4.8v-1.1h-1.1c-3.4,0-5.8,0.3-7.1,0.8s-2,1.5-2,3 c0,1.2,0.4,2.1,1.2,2.9c0.8,0.7,1.8,1.1,2.9,1.1C311.6,51.6,313.1,51,314.2,49.7L314.2,49.7z"></path>
        <path class="st0" d="M171.9,119.1c-0.9-0.9-1.3-2.1-1.3-3.6V80.1c0-1.5,0.4-2.7,1.3-3.5s2.1-1.3,3.6-1.3s2.7,0.4,3.6,1.3 c0.9,0.9,1.3,2.1,1.3,3.5v35.3c0,1.5-0.4,2.7-1.3,3.6s-2.1,1.3-3.6,1.3S172.8,119.9,171.9,119.1z"></path>
        <path class="st0" d="M215.9,91.6c1.8,2.2,2.7,5.4,2.7,9.8v14.6c0,1.4-0.4,2.5-1.3,3.3c-0.9,0.8-2,1.2-3.5,1.2s-2.6-0.4-3.5-1.2 c-0.8-0.8-1.3-1.9-1.3-3.3v-14.1c0-2.1-0.4-3.6-1.2-4.6c-0.8-1-2-1.4-3.6-1.4c-2,0-3.6,0.6-4.8,1.9s-1.8,2.9-1.8,5v13.2 c0,1.4-0.4,2.5-1.3,3.3c-0.8,0.8-2,1.2-3.5,1.2s-2.6-0.4-3.5-1.2c-0.9-0.8-1.3-1.9-1.3-3.3V92.8c0-1.3,0.4-2.3,1.4-3.2 c0.9-0.8,2.1-1.2,3.5-1.2c1.3,0,2.4,0.4,3.2,1.2c0.8,0.8,1.2,1.8,1.2,3v0.9c1.1-1.7,2.5-3,4.2-3.8s3.7-1.3,5.9-1.3 C211.4,88.3,214.1,89.4,215.9,91.6L215.9,91.6z"></path>
        <path class="st0" d="M231,118.6c-2.4-1.3-4.2-3.2-5.5-5.5s-1.9-5.2-1.9-8.4s0.7-6.1,2.1-8.5c1.4-2.5,3.3-4.4,5.8-5.7 c2.5-1.3,5.3-2,8.6-2c1.7,0,3.4,0.2,5.1,0.7c1.7,0.5,3.2,1.1,4.6,1.9c1.3,0.8,1.9,2,1.9,3.5c0,1.1-0.2,2-0.8,2.7 c-0.5,0.7-1.2,1-2,1c-0.6,0-1.1-0.1-1.5-0.3s-1.1-0.5-1.9-0.8c-0.9-0.5-1.7-0.8-2.4-1.1s-1.5-0.4-2.4-0.4c-2.4,0-4.1,0.8-5.4,2.2 s-1.9,3.7-1.9,6.5s0.6,5,1.9,6.6s3,2.3,5.4,2.3c0.9,0,1.7-0.1,2.3-0.3c0.7-0.2,1.5-0.6,2.5-1.1c0.8-0.4,1.4-0.7,1.9-0.8 c0.5-0.2,1-0.3,1.5-0.3c0.8,0,1.5,0.4,2,1.1c0.5,0.7,0.8,1.6,0.8,2.7c0,1.6-0.6,2.7-1.9,3.5c-1.4,0.8-2.9,1.5-4.7,1.9 c-1.8,0.5-3.6,0.7-5.5,0.7C236.2,120.5,233.5,119.9,231,118.6L231,118.6z"></path>
        <path class="st0" d="M257.7,119.3c-0.9-0.8-1.4-1.9-1.4-3.3V79.8c0-1.5,0.5-2.6,1.4-3.3c0.9-0.8,2-1.1,3.4-1.1s2.5,0.4,3.4,1.1 c0.9,0.8,1.4,1.9,1.4,3.3v36.2c0,1.5-0.5,2.6-1.4,3.3c-0.9,0.8-2,1.1-3.4,1.1S258.6,120,257.7,119.3z"></path>
        <path class="st0" d="M301.1,89.7c0.9,0.8,1.3,1.9,1.3,3.3v23.1c0,1.3-0.5,2.3-1.4,3.2c-0.9,0.8-2.1,1.2-3.5,1.2 c-1.3,0-2.4-0.4-3.2-1.1c-0.8-0.8-1.2-1.8-1.2-3v-0.6c-1,1.6-2.2,2.8-3.8,3.7c-1.6,0.8-3.4,1.3-5.3,1.3c-3.9,0-6.8-1.1-8.7-3.2 c-1.9-2.2-2.9-5.4-2.9-9.8V92.9c0-1.4,0.4-2.5,1.3-3.3c0.9-0.8,2-1.2,3.5-1.2s2.6,0.4,3.5,1.2c0.8,0.8,1.3,1.9,1.3,3.3v14.7 c0,1.8,0.4,3.2,1.2,4.1c0.8,0.9,2,1.3,3.6,1.3c1.9,0,3.4-0.6,4.5-1.9c1.2-1.3,1.7-2.9,1.7-5V92.9c0-1.4,0.4-2.5,1.3-3.3 c0.8-0.8,2-1.2,3.5-1.2S300.2,88.9,301.1,89.7L301.1,89.7z"></path>
        <path class="st0" d="M314.2,119.9c-1.9-0.4-3.5-1.1-5-2c-0.6-0.4-1.1-0.9-1.5-1.5c-0.3-0.6-0.5-1.3-0.5-2.1c0-1,0.3-1.8,0.8-2.4 c0.5-0.7,1.2-1,2-1c0.5,0,1.1,0.1,1.6,0.3c0.5,0.2,1.1,0.4,1.7,0.7c1.2,0.6,2.3,1,3.5,1.3s2.5,0.5,4.2,0.5c1.5,0,2.6-0.2,3.4-0.7 s1.2-1.1,1.2-1.9c0-0.6-0.2-1.1-0.5-1.4c-0.4-0.4-1-0.7-2-1c-1-0.3-2.5-0.7-4.6-1.1c-3.7-0.7-6.4-1.8-8.1-3.2 c-1.6-1.4-2.5-3.4-2.5-6c0-1.9,0.6-3.6,1.7-5.1c1.1-1.5,2.7-2.7,4.8-3.6c2-0.9,4.3-1.3,6.8-1.3c1.8,0,3.6,0.2,5.3,0.7 s3.2,1.1,4.6,1.9c1.3,0.8,2,2,2,3.5c0,1-0.3,1.8-0.8,2.5c-0.5,0.7-1.2,1-2,1c-1,0-2.1-0.4-3.5-1.1c-1-0.6-2-0.9-2.9-1.2 c-0.9-0.3-1.9-0.4-3.1-0.4c-1.3,0-2.3,0.2-3.1,0.7s-1.1,1.2-1.1,2c0,0.9,0.4,1.6,1.3,2c0.9,0.5,2.6,0.9,5.1,1.4 c2.8,0.6,5,1.2,6.6,2c1.6,0.8,2.8,1.8,3.5,2.9s1.1,2.7,1.1,4.5c0,3-1.2,5.4-3.7,7.1s-5.7,2.7-9.9,2.7 C318.3,120.5,316.1,120.3,314.2,119.9L314.2,119.9z"></path>
        <path class="st0" d="M340.2,82.1c-1-0.9-1.5-2-1.5-3.5s0.5-2.6,1.5-3.5s2.3-1.3,4-1.3s3,0.4,3.9,1.3s1.5,2,1.5,3.4 s-0.5,2.6-1.5,3.5s-2.3,1.3-4,1.3S341.2,83,340.2,82.1z M340.7,119.3c-0.9-0.8-1.4-1.9-1.4-3.3v-23c0-1.5,0.5-2.6,1.4-3.3 c0.9-0.8,2.1-1.1,3.4-1.1s2.5,0.4,3.4,1.1c0.9,0.8,1.4,1.9,1.4,3.3v23c0,1.5-0.5,2.6-1.4,3.3c-0.9,0.8-2,1.1-3.4,1.1 S341.6,120,340.7,119.3L340.7,119.3z"></path>
        <path class="st0" d="M378.4,89.2c0.7-0.4,1.4-0.7,2.2-0.7c1.2,0,2.2,0.4,3.1,1.2c0.9,0.8,1.4,1.7,1.4,2.8c0,0.6-0.1,1.2-0.4,1.8 l-11.3,23.2c-0.4,0.9-1,1.6-1.9,2.1c-0.8,0.5-1.7,0.7-2.7,0.7s-1.9-0.2-2.7-0.7s-1.5-1.2-2-2.1l-11.3-23.2 c-0.2-0.6-0.4-1.2-0.4-1.7c0-1.1,0.5-2.1,1.5-2.9c1-0.8,2.1-1.2,3.3-1.2c0.9,0,1.7,0.2,2.4,0.7c0.7,0.4,1.3,1.1,1.7,2l7.8,17 l7.7-16.9C377.1,90.3,377.7,89.6,378.4,89.2L378.4,89.2z"></path>
        <path class="st0" d="M412.7,91.6c2.2,2.2,3.3,5.6,3.3,10.1V116c0,1.4-0.4,2.5-1.2,3.2c-0.8,0.8-1.9,1.2-3.3,1.2 c-1.3,0-2.4-0.4-3.2-1.2c-0.8-0.8-1.2-1.9-1.2-3.2v-0.4c-0.6,1.6-1.7,2.8-3.1,3.7c-1.5,0.9-3.2,1.3-5.2,1.3c-2.1,0-4-0.4-5.7-1.3 c-1.7-0.8-3-2-4-3.5s-1.5-3.2-1.5-5c0-2.3,0.6-4.1,1.7-5.3c1.1-1.3,3-2.2,5.6-2.8c2.6-0.6,6.1-0.9,10.5-0.9h1.6v-1.1 c0-1.8-0.4-3-1.2-3.8c-0.8-0.8-2.1-1.2-3.9-1.2s-4.4,0.6-7.8,1.9c-1,0.5-1.8,0.7-2.5,0.7c-0.9,0-1.7-0.3-2.2-1 c-0.5-0.7-0.8-1.5-0.8-2.6c0-0.8,0.2-1.5,0.6-2.1s1-1.1,1.8-1.5c1.5-0.8,3.3-1.4,5.4-1.9c2.1-0.5,4.2-0.7,6.3-0.7 C407.2,88.3,410.5,89.4,412.7,91.6L412.7,91.6z M405.2,112.1c1.1-1.2,1.7-2.8,1.7-4.8v-1.1h-1.1c-3.4,0-5.8,0.3-7.1,0.8 s-2,1.5-2,3c0,1.2,0.4,2.1,1.2,2.9c0.8,0.7,1.8,1.1,2.9,1.1C402.6,114,404.1,113.3,405.2,112.1L405.2,112.1z"></path>
      </g>
      <circle class="st0" cx="65.2" cy="65.2" r="65.2"></circle>
      <g>
        <path class="st1" d="M102.3,94.8L102.3,94.8c-5.3-3.4-9.6-9.4-9.6-16.6V61.8v-4.4c0-6-3.9-10.8-9.8-11c-3.6-0.1-6.5,1.7-8.2,4.3 c-1.3,1.9-2,4.3-2,6.9v23.2c0,3-2.4,5.5-5.5,5.5c-0.5,0-1-0.1-1.5-0.2c-1-0.3-1.8-0.8-2.5-1.5c-0.9-1-1.5-2.3-1.5-3.7V57.5 c0-0.4,0-0.7,0-1.1c-0.5-5.5-4.2-9.8-9.8-9.9c-1.7,0-3.3,0.4-4.7,1.1c-3.5,1.8-5.6,5.7-5.6,10.1v23.3c0,3.3-3,5.9-6.4,5.4 c-2.7-0.4-4.6-2.8-4.6-5.6V56.4c0-3.3-1.3-6-3.6-7.8c0,0-2.3-2.1-6.6-2.1s-8.2,3-9.2,7.6c0,0-0.9,5-1.1,8.7c0,0.5,0,1.1,0,1.6 c0,0.4,0,0.9,0,1.3c0,0.5,0,1,0,1.4c0,0.5,0.1,1,0.1,1.5c0,0.4,0.1,0.8,0.1,1.2c0.1,0.6,0.1,1.3,0.2,1.9c0,0.2,0.1,0.5,0.1,0.7 c0.1,0.8,0.2,1.6,0.4,2.4c0,0,0,0.1,0,0.1c4,21.5,20.6,38.8,41.9,43.7c0.1,0,0.3,0.1,0.4,0.1c0.7,0.2,1.4,0.3,2,0.4 c0.3,0.1,0.5,0.1,0.8,0.2c0.6,0.1,1.1,0.2,1.7,0.2c0.4,0.1,0.8,0.1,1.2,0.2c0.5,0.1,1,0.1,1.4,0.1s1,0.1,1.4,0.1 c0.4,0,0.9,0,1.3,0.1c0.5,0,1.1,0,1.7,0c0.3,0,0.5,0,0.8,0c0.6,0,1.3,0,1.9-0.1c0.2,0,0.5,0,0.8,0c0.7,0,1.4-0.1,2.2-0.2 c0.2,0,0.3,0,0.4,0c0.8-0.1,1.7-0.2,2.5-0.3c0.3,0,0.5-0.1,0.8-0.1c0.6-0.1,1.1-0.2,1.7-0.3c0.4-0.1,0.7-0.2,1.1-0.2 c0.4-0.1,0.9-0.2,1.3-0.3c0.4-0.1,0.8-0.2,1.2-0.3c0.4-0.1,0.7-0.2,1.1-0.3c0.4-0.1,0.9-0.3,1.3-0.4c0.2-0.1,0.3-0.1,0.5-0.2 c1.2-0.4,2.5-0.9,3.7-1.4h0c0.6-0.2,1.2-0.5,1.8-0.8c0.1,0,0.2-0.1,0.3-0.1c0.6-0.3,1.2-0.6,1.8-0.9c0,0,0.1,0,0.1-0.1 c2.6-1.3,5-2.8,7.3-4.5c0,0,0.1,0,0.1-0.1c4.7-3.4,8.8-7.6,12.2-12.3C107.3,97.1,104.7,96.3,102.3,94.8L102.3,94.8z"></path>
        <path class="st2" d="M119.2,75.8c0.1-0.7,0.3-1.4,0.4-2.1c0-0.2,0.1-0.4,0.1-0.6c0.1-0.8,0.2-1.6,0.3-2.4c0-0.1,0-0.2,0-0.2 c0.1-0.8,0.1-1.6,0.2-2.4c0-0.1,0-0.2,0-0.3c0-0.9,0.1-1.7,0.1-2.6c0-0.1,0-0.2,0-0.3c0-0.7,0-1.3-0.1-2c0-0.4,0-0.8-0.1-1.2 c0-0.5-0.1-1-0.1-1.5c0-0.4-0.1-0.9-0.1-1.3c-0.1-0.4-0.1-0.8-0.2-1.3c-0.1-0.5-0.1-1-0.2-1.5c-0.1-0.3-0.1-0.6-0.2-0.9 c-0.1-0.6-0.2-1.3-0.4-1.9c0-0.1-0.1-0.3-0.1-0.4c-4.5-19.7-19.6-35.5-39-40.9c0,0,0,0-0.1,0c-0.7-0.2-1.5-0.4-2.2-0.6 c-0.2,0-0.4-0.1-0.6-0.1c-0.6-0.1-1.2-0.3-1.8-0.4c-0.3-0.1-0.6-0.1-1-0.2c-0.5-0.1-1-0.2-1.5-0.2c-0.4-0.1-0.9-0.1-1.3-0.2 c-0.4-0.1-0.9-0.1-1.3-0.1c-0.5-0.1-1-0.1-1.5-0.1c-0.4,0-0.8-0.1-1.2-0.1c-0.6,0-1.2,0-1.7,0c-0.3,0-0.6,0-0.9,0 c-0.7,0-1.3,0-2,0.1c-0.2,0-0.5,0-0.7,0c-0.9,0.1-1.8,0.1-2.6,0.2c0,0,0,0,0,0c-0.9,0.1-1.7,0.2-2.5,0.3c-0.3,0.1-0.7,0.1-1,0.2 c-0.5,0.1-1,0.2-1.5,0.3c-0.4,0.1-0.8,0.2-1.3,0.3c-0.4,0.1-0.8,0.2-1.1,0.3c-0.5,0.1-1,0.2-1.4,0.4c-0.3,0.1-0.6,0.2-0.9,0.2 c-0.5,0.2-1.1,0.3-1.6,0.5c-0.1,0-0.3,0.1-0.4,0.1c-5.7,1.9-11,4.7-15.7,8.3c-0.1,0-0.1,0.1-0.2,0.1c-5.3,4-9.8,8.9-13.4,14.6 c4.5-0.6,9.2,0.2,13.3,2.7c0,0,4.5,2.7,7,7.6c0.5-0.8,1-1.7,1.5-2.4c2.4-3.4,5.7-6.3,10-7.4c1.2-0.3,2.6-0.5,4-0.5 c7,0,12.2,4.3,15.5,10.6c3.4-6.4,8.6-10.6,15.5-10.6c9.9,0,18.3,8.5,18.3,19.4v21.7c0,4,2.2,8.5,7.4,8.5c4.9,0,7.1-5.2,7.6-7.1 c0.1-0.5,0.2-1,0.4-1.6C119.1,76.3,119.2,76.1,119.2,75.8L119.2,75.8z"></path>
      </g>
    </g>
  </g>
</svg>