<svg width="247" height="240" viewBox="0 0 247 240" fill="none" xmlns="http://www.w3.org/2000/svg">
<rect x="0.889404" y="0.000976562" width="245.221" height="239.999" rx="119.999" fill="#849CDB"/>
<path d="M101.288 66.5455C106.335 64.3844 111.149 63.2392 114.239 63.0106C117.268 62.7864 122.7 62.9399 128.457 64.4185C134.207 65.8955 140.438 68.736 144.858 74.0082L145.262 74.5046C147.215 76.9736 148.186 79.2745 149.12 81.4748L149.739 82.9133C150.373 84.3449 151.08 85.7693 152.131 87.3007L152.546 87.8942C154.67 90.879 157.469 94.0474 159.821 96.5458C161.069 97.8719 162.18 98.9972 162.978 99.7903C163.376 100.186 163.696 100.499 163.916 100.713C164.026 100.819 164.11 100.901 164.167 100.955C164.195 100.983 164.217 101.003 164.231 101.016C164.238 101.023 164.244 101.028 164.247 101.031C164.249 101.032 164.25 101.034 164.251 101.034L164.251 101.035L164.35 101.139C164.82 101.675 164.869 102.474 164.452 103.073L161.809 106.865C161.99 107.146 162.205 107.485 162.443 107.876C163.17 109.068 164.127 110.747 165.042 112.688C166.775 116.366 168.517 121.304 167.934 125.709L167.871 126.134C167.281 129.641 166.361 132.325 164.722 134.561C163.363 136.415 161.58 137.858 159.313 139.214L160.48 141.148L174.861 142.905L174.969 142.923C175.504 143.027 175.948 143.404 176.135 143.922C176.335 144.474 176.209 145.094 175.808 145.529L175.308 146.071C175.307 146.072 175.305 146.073 175.304 146.074L175.305 146.075L175.295 146.086L175.292 146.088L175.262 146.121L175.26 146.122L175.216 146.17L175.135 146.256L174.663 146.747C174.459 146.956 174.208 147.21 173.916 147.501L172.915 148.476C171.61 149.725 169.829 151.345 167.739 153.029L166.825 153.754C162.108 157.43 155.681 161.493 149.48 162.067L148.88 162.111C146.001 162.272 143.339 162.37 140.881 162.448L138.49 162.521L138.441 162.522L136.787 162.572C133.688 162.668 130.995 162.773 128.605 162.994L127.599 163.096C122.529 163.66 119.13 164.835 116.401 167.554L116.139 167.822C114.991 169.027 113.97 170.282 113.001 171.54L112.045 172.797L111.687 173.274C110.715 174.568 109.737 175.871 108.719 177.024L108.281 177.509C107.053 178.828 105.659 180.016 103.966 180.748L103.624 180.889C101.85 181.575 99.9087 181.702 97.7369 181.204L97.2989 181.096C95.7548 180.688 94.4588 179.947 93.6244 178.767L93.4632 178.525C92.6447 177.211 92.5623 175.714 92.8068 174.329L92.9102 173.825C93.5053 171.285 95.2225 168.472 97.1472 165.863L97.7499 165.063C100.818 161.054 104.704 157.01 107.337 154.269L107.337 154.268L107.338 154.268L108.499 153.056C108.569 152.983 108.637 152.909 108.704 152.838L105.87 146.627C105.856 146.597 105.845 146.567 105.833 146.537L105.31 145.175C105.278 145.093 105.254 145.008 105.237 144.922C105.16 144.541 105.141 144.398 105.079 144.104C105.029 143.87 104.982 143.706 104.931 143.579C104.857 143.397 104.779 143.293 104.585 143.193C103.339 142.756 97.996 140.684 92.1895 137.281C86.3621 133.865 79.7667 128.938 76.5919 122.753L76.2949 122.151C74.4517 118.235 73.3172 114.803 72.8463 111.234C72.3756 107.666 72.5793 104.046 73.3127 99.7693L73.49 98.7997C75.3958 88.9322 79.7921 83.7486 86.6183 76.443L87.0149 76.0254C91.1564 71.746 96.3904 68.6429 101.288 66.5455Z" fill="#610404" stroke="white" stroke-width="3.14052" stroke-linejoin="round"/>
<path fill-rule="evenodd" clip-rule="evenodd" d="M106.775 144.602C106.549 143.478 106.474 142.344 105.232 141.752C103.609 141.214 83.3791 133.505 77.7149 121.472C74.1198 113.834 73.4264 108.379 74.8591 100.025C76.5786 89.998 80.7592 85.0052 87.7596 77.5132C95.7715 68.9387 108.584 65.0039 114.344 64.5778C120.103 64.1516 135.383 65.1584 143.653 75.0241C145.718 77.4878 146.681 79.7558 147.675 82.0983C148.495 84.03 149.337 86.0124 150.836 88.1969C155.301 94.7034 163.167 102.179 163.167 102.179L159.912 106.853C159.912 106.853 167.67 117.881 166.324 125.884C165.188 132.639 162.885 135.545 157.135 138.651L159.528 142.616L174.66 144.466L174.16 145.009L173.884 144.76C174.02 144.882 174.088 144.944 174.123 144.976C174.16 145.009 174.16 145.009 174.16 145.009L174.149 145.02L174.119 145.053C174.107 145.065 174.093 145.08 174.077 145.097C174.056 145.12 174.03 145.147 174 145.178C173.897 145.288 173.743 145.448 173.544 145.652C173.147 146.06 172.567 146.643 171.835 147.343C170.371 148.744 168.3 150.62 165.867 152.516C161.022 156.292 154.666 160.215 148.804 160.542C144.988 160.755 141.554 160.857 138.454 160.95L138.406 160.951C137.843 160.968 137.291 160.985 136.75 161.001C133.213 161.111 130.142 161.233 127.437 161.534C122.034 162.135 118.149 163.443 115.007 166.741C113.408 168.42 112.056 170.181 110.794 171.857C110.674 172.016 110.555 172.176 110.436 172.334C109.313 173.829 108.246 175.25 107.137 176.441C105.908 177.761 104.603 178.829 103.068 179.423C101.524 180.02 99.7832 180.124 97.709 179.576C96.3102 179.207 95.3462 178.57 94.7961 177.687C94.2472 176.805 94.1489 175.74 94.3515 174.592C94.7531 172.317 96.3655 169.559 98.4066 166.792C101.481 162.624 105.641 158.293 108.464 155.354L108.465 155.354C109.307 154.477 110.03 153.724 110.569 153.137L107.298 145.965L106.775 144.602Z" fill="#610404"/>
<path d="M142.524 136.428C129.552 140.934 118.533 130.983 118.533 130.983L117.141 129.262C117.141 129.262 114.868 131.005 113.204 131.732C110.175 133.056 108.097 133.33 104.83 132.909C100.376 132.335 96.9212 131.321 94.793 127.42C92.8568 123.871 91.8606 119.721 94.9628 117.047C97.236 115.088 99.619 115.512 102.576 115.977C107.072 116.684 108.325 121.302 112.002 122.702C115.678 124.102 117.331 121.953 117.331 121.953C117.331 121.953 108.966 102.813 109.096 100.879C109.226 98.9439 110.698 98.3536 110.698 98.3536C110.698 98.3536 108.064 96.0408 108.294 94.8585C108.524 93.6762 135.769 79.8813 135.769 79.8813C135.769 79.8813 142.511 83.9168 142.531 86.9803C142.551 90.0439 142.321 91.2262 145.286 93.1093C148.251 94.9924 157.878 103.222 157.878 103.222L150.355 110.795L154.643 110.96C154.643 110.96 161.031 123.988 159.181 127.57C157.331 131.152 155.495 131.921 142.524 136.428Z" fill="#D9D9D9" stroke="white" stroke-width="1.17769"/>
<path d="M148.904 143.679C149.231 143.929 149.558 144.19 149.878 144.461C151.046 145.451 152.088 146.539 152.655 147.601C153.216 148.653 153.282 149.61 152.645 150.451C151.99 151.317 151.25 151.732 150.387 152.04C150.018 152.172 149.632 152.283 149.215 152.402L149.215 152.402C149.135 152.425 149.054 152.448 148.972 152.472C148.466 152.618 147.923 152.781 147.353 153.008C146.925 153.178 141.783 154.163 141.783 154.163C141.783 154.163 127.655 157.466 121.77 152.376C119.675 150.564 117.508 146.724 117.508 146.724C116.74 145.135 116.066 142.959 115.582 141.165C115.364 140.357 115.186 139.632 115.056 139.079C116.282 138.951 117.278 139.42 118.395 139.945L118.395 139.945C118.957 140.209 119.549 140.488 120.216 140.712C122.423 141.453 124.125 142.488 125.754 143.478L125.754 143.478C128.138 144.928 130.364 146.282 133.78 146.472C138.889 146.757 143.969 145.57 148.904 143.679Z" fill="#D9D9D9"/>
<path d="M125.176 102.11L122.391 98.6684C122.391 98.6684 125.172 94.6251 128.31 93.6201C131.025 92.7507 134.881 93.4632 134.881 93.4632L135.182 95.7208C135.182 95.7208 132.311 95.9888 130.664 96.739C127.93 97.985 125.176 102.11 125.176 102.11Z" fill="#171E1E"/>
<path d="M149.958 119.325C146.632 120.559 143.868 120.181 143.868 120.181C143.868 120.181 142.792 121.59 142.646 122.652C142.524 123.536 142.946 124.91 142.946 124.91C142.946 124.91 150.304 124.84 152.031 123.25C154.125 121.322 155.768 119.275 155.768 119.275L155.086 117.071C155.086 117.071 151.654 118.695 149.958 119.325Z" fill="#171E1E"/>
<ellipse cx="4.20186" cy="3.81987" rx="4.20186" ry="3.81987" transform="matrix(0.797352 0.597482 -0.611859 0.795534 132.441 98.0225)" fill="#171E1E"/>
</svg>
