<?xml version="1.0" encoding="UTF-8"?>
<svg xmlns="http://www.w3.org/2000/svg" xmlns:xlink="http://www.w3.org/1999/xlink" width="213" height="36" viewBox="0 0 213 36" version="1.1">
<g id="surface1">
<path style="fill:none;stroke-width:2.31866;stroke-linecap:butt;stroke-linejoin:round;stroke:rgb(100%,100%,100%);stroke-opacity:1;stroke-miterlimit:4;" d="M 179.304435 214.532986 C 183.074597 212.934462 186.622984 212.107639 188.896169 211.942274 C 191.113911 211.77691 195.16129 211.887153 199.375 212.989583 C 203.644153 214.036892 208.245968 216.13151 211.517137 220.045139 C 213.125 222.029514 213.90121 223.848524 214.621976 225.557292 C 215.231855 226.990451 215.841734 228.36849 216.895161 229.856771 C 218.447581 232.171875 220.720766 234.707465 222.550403 236.69184 C 223.492944 237.684028 224.269153 238.510851 224.879032 239.062066 C 225.15625 239.392795 225.433468 239.613281 225.544355 239.778646 C 225.655242 239.833767 225.710685 239.888889 225.766129 239.94401 C 225.766129 239.94401 225.766129 239.999132 225.821573 239.999132 C 226.209677 240.384983 226.320565 241.046441 225.987903 241.487413 L 223.991935 244.298611 C 224.158266 244.519097 224.324597 244.739583 224.490927 245.070312 C 225.045363 245.952257 225.710685 247.164931 226.376008 248.59809 C 227.706653 251.409288 229.037298 255.212674 228.482863 258.519965 C 228.039315 261.110677 227.373992 263.095052 226.154234 264.748698 C 225.15625 266.126736 223.825605 267.174045 222.162298 268.166233 L 223.049395 269.599392 L 233.639113 270.922309 C 234.082661 270.977431 234.470766 271.253038 234.581653 271.638889 C 234.747984 272.079861 234.637097 272.520833 234.359879 272.851562 L 233.971774 273.237413 L 233.971774 273.292535 L 233.916331 273.292535 L 233.916331 273.347656 C 233.916331 273.347656 233.860887 273.347656 233.860887 273.402778 C 233.75 273.457899 233.639113 273.568142 233.528226 273.733507 C 233.195565 274.064236 232.752016 274.505208 232.197581 275.001302 C 231.08871 276.103733 229.53629 277.481771 227.706653 278.914931 C 224.102823 281.726128 219.168347 284.812934 214.455645 285.088542 C 211.628024 285.253906 209.077621 285.309028 206.804435 285.419271 L 206.748992 285.419271 C 206.360887 285.419271 205.917339 285.419271 205.529234 285.419271 C 202.923387 285.529514 200.705645 285.584635 198.765121 285.805122 C 194.884073 286.246094 192.333669 287.18316 190.282258 289.332899 C 189.173387 290.490451 188.175403 291.758247 187.288306 292.97092 C 187.177419 293.081163 187.121976 293.191406 187.011089 293.356771 C 186.179435 294.40408 185.347782 295.50651 184.516129 296.443576 C 183.518145 297.490885 182.409274 298.427951 181.078629 298.979167 C 179.637097 299.47526 178.140121 299.585503 176.365927 299.08941 C 175.146169 298.758681 174.148185 298.207465 173.538306 297.215278 C 172.928427 296.22309 172.872984 295.12066 173.094758 294.128472 C 173.427419 292.144097 174.758065 289.939236 176.25504 287.844618 C 178.583669 284.702691 181.743952 281.450521 183.795363 279.300781 C 184.183468 278.914931 184.516129 278.52908 184.793347 278.253472 L 182.686492 273.678385 C 182.686492 273.623264 182.686492 273.623264 182.686492 273.568142 L 182.298387 272.575955 C 182.298387 272.520833 182.242944 272.465712 182.242944 272.41059 C 182.1875 272.134983 182.1875 272.02474 182.132056 271.804253 C 182.076613 271.638889 182.076613 271.528646 182.021169 271.418403 C 181.965726 271.253038 181.910282 271.197917 181.743952 271.142795 C 180.856855 270.812066 176.920363 269.268663 172.595766 266.733073 C 168.160282 264.142361 163.114919 260.338976 160.897177 255.598524 C 159.511089 252.677083 158.679435 250.141493 158.346774 247.550781 C 157.958669 244.904948 158.125 242.203993 158.679435 239.062066 C 160.010081 231.289931 163.28125 227.431424 168.492944 221.864149 C 171.597782 218.501736 175.589718 216.13151 179.304435 214.532986 Z M 179.304435 214.532986 " transform="matrix(0.0704545,0,0,0.0708661,0,0)"/>
<path style=" stroke:none;fill-rule:nonzero;fill:rgb(100%,100%,100%);fill-opacity:1;" d="M 15.113281 19.238281 C 15.128906 19.253906 15.144531 19.265625 15.160156 19.28125 C 15.222656 19.332031 15.277344 19.386719 15.304688 19.445312 C 15.335938 19.5 15.339844 19.550781 15.304688 19.59375 C 15.273438 19.636719 15.234375 19.660156 15.1875 19.675781 C 15.167969 19.683594 15.148438 19.6875 15.128906 19.695312 L 15.113281 19.699219 C 15.089844 19.707031 15.058594 19.714844 15.03125 19.726562 C 15.007812 19.734375 14.742188 19.789062 14.742188 19.789062 C 14.742188 19.789062 14.007812 19.960938 13.699219 19.695312 C 13.589844 19.597656 13.476562 19.398438 13.476562 19.398438 C 13.4375 19.316406 13.402344 19.203125 13.378906 19.105469 C 13.367188 19.066406 13.359375 19.027344 13.351562 19 C 13.414062 18.992188 13.464844 19.015625 13.523438 19.042969 C 13.554688 19.058594 13.585938 19.070312 13.621094 19.082031 C 13.734375 19.121094 13.824219 19.175781 13.90625 19.226562 C 14.03125 19.304688 14.148438 19.375 14.324219 19.386719 C 14.589844 19.398438 14.855469 19.335938 15.113281 19.238281 Z M 15.113281 19.238281 "/>
<path style=" stroke:none;fill-rule:evenodd;fill:rgb(100%,100%,100%);fill-opacity:1;" d="M 13.53125 18.574219 C 13.53125 18.574219 14.105469 19.09375 14.78125 18.859375 C 15.453125 18.625 15.550781 18.582031 15.644531 18.394531 C 15.742188 18.207031 15.410156 17.527344 15.410156 17.527344 L 15.1875 17.519531 L 15.578125 17.121094 C 15.578125 17.121094 15.078125 16.691406 14.921875 16.59375 C 14.78125 16.5 14.78125 16.441406 14.78125 16.304688 C 14.78125 16.296875 14.78125 16.285156 14.78125 16.273438 C 14.777344 16.113281 14.429688 15.902344 14.429688 15.902344 C 14.429688 15.902344 13.011719 16.621094 13 16.683594 C 12.988281 16.746094 13.125 16.867188 13.125 16.867188 C 13.125 16.867188 13.046875 16.898438 13.039062 17 C 13.035156 17.101562 13.46875 18.101562 13.46875 18.101562 C 13.46875 18.101562 13.382812 18.214844 13.191406 18.140625 C 13.109375 18.109375 13.046875 18.042969 12.988281 17.980469 C 12.910156 17.894531 12.832031 17.808594 12.703125 17.789062 C 12.699219 17.789062 12.695312 17.789062 12.691406 17.789062 C 12.542969 17.765625 12.421875 17.746094 12.304688 17.84375 C 12.144531 17.984375 12.195312 18.203125 12.296875 18.386719 C 12.40625 18.59375 12.585938 18.644531 12.820312 18.675781 C 12.988281 18.699219 13.097656 18.683594 13.253906 18.613281 C 13.339844 18.574219 13.460938 18.484375 13.460938 18.484375 Z M 13.878906 17.0625 L 13.730469 16.882812 C 13.730469 16.882812 13.878906 16.671875 14.039062 16.621094 C 14.179688 16.574219 14.382812 16.613281 14.382812 16.613281 L 14.398438 16.730469 C 14.398438 16.730469 14.25 16.742188 14.164062 16.78125 C 14.019531 16.847656 13.878906 17.0625 13.878906 17.0625 Z M 15.167969 17.964844 C 14.992188 18.027344 14.847656 18.007812 14.847656 18.007812 C 14.847656 18.007812 14.792969 18.082031 14.785156 18.140625 C 14.78125 18.183594 14.800781 18.257812 14.800781 18.257812 C 14.800781 18.257812 15.183594 18.253906 15.273438 18.171875 C 15.382812 18.070312 15.46875 17.960938 15.46875 17.960938 L 15.433594 17.847656 C 15.433594 17.847656 15.253906 17.933594 15.167969 17.964844 Z M 14.480469 17.273438 C 14.414062 17.359375 14.28125 17.371094 14.1875 17.300781 C 14.089844 17.226562 14.066406 17.097656 14.132812 17.007812 C 14.199219 16.921875 14.332031 16.910156 14.429688 16.980469 C 14.527344 17.054688 14.550781 17.183594 14.480469 17.273438 Z M 14.480469 17.273438 "/>
<path style=" stroke:none;fill-rule:nonzero;fill:rgb(100%,100%,100%);fill-opacity:1;" d="M 20.828125 17.9375 C 21.007812 17.992188 21.148438 18.089844 21.253906 18.226562 C 21.355469 18.359375 21.40625 18.523438 21.40625 18.722656 C 21.40625 19 21.296875 19.214844 21.082031 19.363281 C 20.867188 19.511719 20.554688 19.585938 20.144531 19.585938 L 18.511719 19.585938 L 18.511719 16.414062 L 20.050781 16.414062 C 20.4375 16.414062 20.730469 16.488281 20.9375 16.636719 C 21.144531 16.78125 21.246094 16.984375 21.246094 17.238281 C 21.246094 17.390625 21.210938 17.53125 21.136719 17.652344 C 21.0625 17.773438 20.960938 17.867188 20.828125 17.9375 Z M 19.238281 16.964844 L 19.238281 17.714844 L 19.960938 17.714844 C 20.144531 17.714844 20.28125 17.683594 20.371094 17.617188 C 20.464844 17.554688 20.511719 17.460938 20.511719 17.335938 C 20.511719 17.214844 20.464844 17.121094 20.371094 17.0625 C 20.28125 16.996094 20.144531 16.964844 19.960938 16.964844 Z M 20.089844 19.035156 C 20.28125 19.035156 20.425781 19.003906 20.523438 18.9375 C 20.621094 18.875 20.671875 18.777344 20.671875 18.644531 C 20.671875 18.382812 20.476562 18.25 20.089844 18.25 L 19.238281 18.25 L 19.238281 19.035156 Z M 20.089844 19.035156 "/>
<path style=" stroke:none;fill-rule:nonzero;fill:rgb(100%,100%,100%);fill-opacity:1;" d="M 23.96875 19.585938 L 23.359375 18.703125 L 22.6875 18.703125 L 22.6875 19.585938 L 21.957031 19.585938 L 21.957031 16.414062 L 23.324219 16.414062 C 23.605469 16.414062 23.847656 16.460938 24.050781 16.554688 C 24.257812 16.648438 24.417969 16.78125 24.527344 16.953125 C 24.640625 17.125 24.695312 17.328125 24.695312 17.566406 C 24.695312 17.800781 24.636719 18.003906 24.523438 18.175781 C 24.414062 18.347656 24.253906 18.476562 24.046875 18.566406 L 24.753906 19.585938 Z M 23.957031 17.566406 C 23.957031 17.386719 23.898438 17.25 23.785156 17.15625 C 23.671875 17.058594 23.503906 17.011719 23.285156 17.011719 L 22.6875 17.011719 L 22.6875 18.117188 L 23.285156 18.117188 C 23.503906 18.117188 23.671875 18.070312 23.785156 17.972656 C 23.898438 17.875 23.957031 17.738281 23.957031 17.566406 Z M 23.957031 17.566406 "/>
<path style=" stroke:none;fill-rule:nonzero;fill:rgb(100%,100%,100%);fill-opacity:1;" d="M 28.097656 16.414062 L 28.097656 19.585938 L 27.390625 19.585938 L 27.390625 19.203125 C 27.171875 19.496094 26.855469 19.640625 26.433594 19.640625 C 26.058594 19.640625 25.769531 19.523438 25.558594 19.289062 C 25.351562 19.050781 25.246094 18.710938 25.246094 18.273438 L 25.246094 16.414062 L 25.976562 16.414062 L 25.976562 18.25 C 25.976562 18.503906 26.035156 18.695312 26.152344 18.824219 C 26.273438 18.953125 26.4375 19.015625 26.640625 19.015625 C 26.859375 19.015625 27.035156 18.949219 27.167969 18.8125 C 27.300781 18.671875 27.367188 18.46875 27.367188 18.199219 L 27.367188 16.414062 Z M 28.097656 16.414062 "/>
<path style=" stroke:none;fill-rule:nonzero;fill:rgb(100%,100%,100%);fill-opacity:1;" d="M 30.519531 16.359375 C 30.894531 16.359375 31.1875 16.476562 31.398438 16.714844 C 31.609375 16.953125 31.714844 17.289062 31.714844 17.726562 L 31.714844 19.585938 L 30.984375 19.585938 L 30.984375 17.75 C 30.984375 17.496094 30.921875 17.304688 30.800781 17.179688 C 30.683594 17.050781 30.519531 16.984375 30.3125 16.984375 C 30.089844 16.984375 29.910156 17.054688 29.773438 17.191406 C 29.640625 17.328125 29.574219 17.53125 29.574219 17.800781 L 29.574219 19.585938 L 28.84375 19.585938 L 28.84375 16.414062 L 29.554688 16.414062 L 29.554688 16.796875 C 29.660156 16.652344 29.796875 16.542969 29.960938 16.472656 C 30.121094 16.394531 30.308594 16.359375 30.519531 16.359375 Z M 30.519531 16.359375 "/>
<path style=" stroke:none;fill-rule:nonzero;fill:rgb(100%,100%,100%);fill-opacity:1;" d="M 33.960938 19.640625 C 33.636719 19.640625 33.339844 19.570312 33.074219 19.429688 C 32.8125 19.285156 32.605469 19.089844 32.457031 18.84375 C 32.308594 18.59375 32.234375 18.3125 32.234375 18 C 32.234375 17.6875 32.308594 17.410156 32.457031 17.160156 C 32.605469 16.910156 32.8125 16.714844 33.074219 16.570312 C 33.339844 16.429688 33.636719 16.359375 33.960938 16.359375 C 34.289062 16.359375 34.585938 16.429688 34.847656 16.570312 C 35.109375 16.714844 35.3125 16.910156 35.464844 17.160156 C 35.613281 17.410156 35.691406 17.6875 35.691406 18 C 35.691406 18.3125 35.613281 18.59375 35.464844 18.84375 C 35.3125 19.089844 35.109375 19.285156 34.847656 19.429688 C 34.585938 19.570312 34.289062 19.640625 33.960938 19.640625 Z M 33.960938 19.015625 C 34.148438 19.015625 34.316406 18.972656 34.46875 18.890625 C 34.617188 18.800781 34.734375 18.679688 34.820312 18.527344 C 34.90625 18.371094 34.949219 18.195312 34.949219 18 C 34.949219 17.804688 34.90625 17.628906 34.820312 17.472656 C 34.734375 17.320312 34.617188 17.199219 34.46875 17.117188 C 34.316406 17.027344 34.148438 16.984375 33.960938 16.984375 C 33.777344 16.984375 33.609375 17.027344 33.457031 17.117188 C 33.308594 17.199219 33.1875 17.320312 33.101562 17.472656 C 33.015625 17.628906 32.976562 17.804688 32.976562 18 C 32.976562 18.195312 33.015625 18.371094 33.101562 18.527344 C 33.1875 18.679688 33.308594 18.800781 33.457031 18.890625 C 33.609375 18.972656 33.777344 19.015625 33.960938 19.015625 Z M 33.960938 19.015625 "/>
<path style=" stroke:none;fill-rule:nonzero;fill:rgb(100%,100%,100%);fill-opacity:1;" d="M 39.074219 16.414062 C 39.355469 16.414062 39.597656 16.460938 39.800781 16.554688 C 40.007812 16.648438 40.167969 16.78125 40.28125 16.953125 C 40.390625 17.125 40.445312 17.328125 40.445312 17.566406 C 40.445312 17.796875 40.390625 18 40.28125 18.175781 C 40.167969 18.347656 40.007812 18.480469 39.800781 18.574219 C 39.597656 18.667969 39.355469 18.710938 39.074219 18.710938 L 38.441406 18.710938 L 38.441406 19.585938 L 37.710938 19.585938 L 37.710938 16.414062 Z M 39.035156 18.113281 C 39.253906 18.113281 39.421875 18.066406 39.535156 17.972656 C 39.648438 17.875 39.707031 17.738281 39.707031 17.566406 C 39.707031 17.386719 39.648438 17.25 39.535156 17.15625 C 39.421875 17.058594 39.253906 17.011719 39.035156 17.011719 L 38.441406 17.011719 L 38.441406 18.113281 Z M 39.035156 18.113281 "/>
<path style=" stroke:none;fill-rule:nonzero;fill:rgb(100%,100%,100%);fill-opacity:1;" d="M 43.777344 16.414062 L 43.777344 19.585938 L 43.070312 19.585938 L 43.070312 19.203125 C 42.851562 19.496094 42.535156 19.640625 42.113281 19.640625 C 41.742188 19.640625 41.449219 19.523438 41.238281 19.289062 C 41.03125 19.050781 40.925781 18.710938 40.925781 18.273438 L 40.925781 16.414062 L 41.65625 16.414062 L 41.65625 18.25 C 41.65625 18.503906 41.714844 18.695312 41.832031 18.824219 C 41.953125 18.953125 42.117188 19.015625 42.320312 19.015625 C 42.539062 19.015625 42.714844 18.949219 42.847656 18.8125 C 42.980469 18.671875 43.046875 18.46875 43.046875 18.199219 L 43.046875 16.414062 Z M 43.777344 16.414062 "/>
<path style=" stroke:none;fill-rule:nonzero;fill:rgb(100%,100%,100%);fill-opacity:1;" d="M 44.527344 16.414062 L 45.257812 16.414062 L 45.257812 18.988281 L 46.839844 18.988281 L 46.839844 19.585938 L 44.527344 19.585938 Z M 44.527344 16.414062 "/>
<path style=" stroke:none;fill-rule:nonzero;fill:rgb(100%,100%,100%);fill-opacity:1;" d="M 48.328125 17.003906 L 48.328125 18.996094 L 48.875 18.996094 L 48.875 19.585938 L 47.046875 19.585938 L 47.046875 18.996094 L 47.597656 18.996094 L 47.597656 17.003906 L 47.046875 17.003906 L 47.046875 16.414062 L 48.875 16.414062 L 48.875 17.003906 Z M 48.328125 17.003906 "/>
<path style=" stroke:none;fill-rule:nonzero;fill:rgb(100%,100%,100%);fill-opacity:1;" d="M 50.464844 19.640625 C 50.214844 19.640625 49.972656 19.609375 49.738281 19.542969 C 49.507812 19.472656 49.320312 19.382812 49.179688 19.273438 L 49.425781 18.722656 C 49.5625 18.820312 49.722656 18.902344 49.910156 18.960938 C 50.097656 19.023438 50.28125 19.050781 50.46875 19.050781 C 50.675781 19.050781 50.828125 19.023438 50.929688 18.960938 C 51.027344 18.898438 51.078125 18.816406 51.078125 18.710938 C 51.078125 18.636719 51.046875 18.574219 50.988281 18.527344 C 50.929688 18.476562 50.855469 18.433594 50.761719 18.402344 C 50.671875 18.375 50.546875 18.339844 50.390625 18.304688 C 50.152344 18.246094 49.953125 18.1875 49.800781 18.132812 C 49.648438 18.074219 49.515625 17.980469 49.402344 17.855469 C 49.296875 17.726562 49.242188 17.558594 49.242188 17.347656 C 49.242188 17.164062 49.292969 16.996094 49.390625 16.847656 C 49.488281 16.695312 49.640625 16.578125 49.835938 16.488281 C 50.039062 16.402344 50.285156 16.359375 50.570312 16.359375 C 50.773438 16.359375 50.96875 16.382812 51.164062 16.429688 C 51.355469 16.480469 51.523438 16.546875 51.667969 16.640625 L 51.441406 17.195312 C 51.152344 17.03125 50.859375 16.949219 50.566406 16.949219 C 50.363281 16.949219 50.210938 16.980469 50.113281 17.046875 C 50.015625 17.113281 49.96875 17.203125 49.96875 17.3125 C 49.96875 17.417969 50.023438 17.5 50.132812 17.554688 C 50.25 17.605469 50.421875 17.660156 50.652344 17.710938 C 50.894531 17.765625 51.089844 17.824219 51.242188 17.882812 C 51.398438 17.941406 51.527344 18.03125 51.636719 18.152344 C 51.746094 18.277344 51.804688 18.445312 51.804688 18.65625 C 51.804688 18.839844 51.753906 19.003906 51.648438 19.15625 C 51.550781 19.304688 51.398438 19.421875 51.199219 19.511719 C 50.996094 19.597656 50.753906 19.640625 50.464844 19.640625 Z M 50.464844 19.640625 "/>
</g>
</svg>
