<svg width="132" height="152" viewBox="0 0 132 152" fill="none" xmlns="http://www.w3.org/2000/svg">
<path d="M38.9024 10.6977C44.9945 8.08895 50.806 6.70665 54.5351 6.43073C58.1917 6.16021 64.7482 6.34639 71.6963 8.13105C78.6377 9.914 86.159 13.3429 91.4937 19.7068C94.1831 22.9151 95.4358 25.8859 96.6383 28.7189C97.6285 31.0515 98.5816 33.2861 100.273 35.751C102.885 39.5575 106.528 43.6936 109.556 46.9102C111.062 48.5109 112.403 49.8698 113.366 50.8271C113.847 51.3055 114.234 51.6827 114.499 51.94C114.631 52.0686 114.733 52.1678 114.802 52.2336C114.836 52.2664 114.862 52.2914 114.879 52.3076C114.887 52.3155 114.894 52.3208 114.898 52.3247C114.9 52.3265 114.901 52.3281 114.902 52.329L114.903 52.3298C115.58 52.9728 115.683 54.0184 115.145 54.7898L111.956 59.3679C112.174 59.7068 112.434 60.1155 112.721 60.5867C113.599 62.0265 114.754 64.0525 115.858 66.3959C118.018 70.9786 120.188 77.1815 119.273 82.6261C118.561 86.8585 117.449 90.0997 115.471 92.7979C113.83 95.036 111.679 96.7787 108.943 98.4152L110.351 100.748L127.71 102.871C128.414 102.957 129.007 103.431 129.249 104.097C129.49 104.764 129.337 105.514 128.854 106.037L128.25 106.691C128.249 106.693 128.248 106.694 128.247 106.696L128.234 106.709L128.23 106.713L128.194 106.752L128.192 106.755C128.177 106.77 128.159 106.789 128.138 106.812C128.111 106.841 128.078 106.876 128.041 106.915C127.909 107.054 127.718 107.254 127.471 107.507C126.978 108.013 126.261 108.733 125.36 109.595C123.561 111.318 121.01 113.627 118.01 115.965C112.133 120.546 104.056 125.624 96.3489 126.054C92.8743 126.247 89.6608 126.366 86.6933 126.46L83.8068 126.548L83.7489 126.55C83.0695 126.571 82.4047 126.59 81.7531 126.61L81.7521 126.61C77.4773 126.743 73.8414 126.888 70.6616 127.242C64.3445 127.944 60.1758 129.433 56.8282 132.947C54.9812 134.886 53.4064 136.933 51.8864 138.953C51.7419 139.145 51.5981 139.336 51.4546 139.527L51.4536 139.527C50.1131 141.312 48.7629 143.113 47.3425 144.639C45.7615 146.338 43.9528 147.856 41.7216 148.719C39.4382 149.602 36.924 149.719 34.0875 148.97C32.0993 148.444 30.4517 147.462 29.4578 145.866C28.4697 144.279 28.369 142.474 28.6642 140.801L28.7223 140.498C29.37 137.354 31.5033 133.837 33.9039 130.582C37.7 125.436 42.8093 120.12 46.1995 116.591L46.2005 116.591L46.2048 116.586C46.8188 115.947 47.37 115.368 47.8516 114.86L44.4328 107.362C44.4167 107.327 44.4018 107.291 44.388 107.255L43.7571 105.61C43.7192 105.511 43.6891 105.409 43.6682 105.305C43.5759 104.845 43.5541 104.672 43.4785 104.317C43.4184 104.034 43.3616 103.836 43.2996 103.683C43.2126 103.469 43.1218 103.342 42.9005 103.224C41.4316 102.711 34.958 100.207 27.9198 96.0813C20.6587 91.8248 12.4096 85.6256 8.73419 77.8174C6.50931 73.0908 5.13918 68.9481 4.57079 64.64C4.00267 60.3335 4.24853 55.9636 5.1338 50.8013C7.30833 38.1215 12.6887 31.748 21.1941 22.6454C26.2648 17.2187 32.7995 13.311 38.9024 10.6977Z" fill="#171E1E" stroke="white" stroke-width="3.79084" stroke-linejoin="round"/>
<path d="M96.3782 103.804C96.7723 104.106 97.1672 104.422 97.5532 104.749C98.9638 105.943 100.222 107.257 100.906 108.539C101.583 109.809 101.663 110.964 100.894 111.979C100.103 113.025 99.2101 113.525 98.1688 113.897C97.7224 114.057 97.2567 114.19 96.7532 114.334L96.7531 114.334C96.657 114.362 96.5596 114.39 96.4606 114.418C95.8495 114.594 95.1943 114.792 94.5058 115.066C93.9897 115.271 87.783 116.46 87.783 116.46C87.783 116.46 70.7289 120.447 63.6249 114.303C61.0961 112.116 58.4811 107.48 58.4811 107.48C57.5538 105.562 56.7402 102.936 56.1559 100.77C55.893 99.7952 55.678 98.9195 55.5212 98.2523C57.0009 98.098 58.2036 98.6637 59.5514 99.2977L59.5514 99.2977C60.2297 99.6167 60.9446 99.953 61.7501 100.224C64.4131 101.118 66.4682 102.368 68.4338 103.563L68.4338 103.563C71.3125 105.313 73.9991 106.946 78.1217 107.176C84.2897 107.52 90.4215 106.087 96.3782 103.804Z" fill="white"/>
<path fill-rule="evenodd" clip-rule="evenodd" d="M59.7183 88.4797C59.7183 88.4797 73.019 100.491 88.6766 95.0514C104.334 89.6121 106.551 88.6837 108.783 84.36C111.016 80.0364 103.305 64.3096 103.305 64.3096L98.1303 64.1115L107.21 54.9699C107.21 54.9699 95.5902 45.0361 92.0112 42.7631C88.6911 40.6545 88.6901 39.2739 88.6879 36.1331C88.6877 35.8882 88.6875 35.6325 88.6858 35.3649C88.6614 31.667 80.5239 26.7958 80.5239 26.7958C80.5239 26.7958 47.6371 43.4473 47.3591 44.8744C47.0811 46.3015 50.2612 49.0933 50.2612 49.0933C50.2612 49.0933 48.4838 49.8058 48.3267 52.1412C48.1697 54.4767 58.2668 77.5794 58.2668 77.5794C58.2668 77.5794 56.2719 80.1732 51.8344 78.4834C49.88 77.7392 48.4928 76.2416 47.0886 74.7256C45.3046 72.7995 43.4932 70.8439 40.4564 70.3663C40.3829 70.3548 40.3098 70.3433 40.2369 70.3318C36.7692 69.7853 33.9547 69.3417 31.2673 71.6578C27.5226 74.885 28.7251 79.8951 31.0623 84.1788C33.6312 88.8871 37.8014 90.1113 43.1779 90.8043C47.1206 91.3124 49.6299 90.9817 53.2859 89.3837C55.2939 88.506 58.0375 86.4025 58.0375 86.4025L59.7183 88.4797ZM67.736 53.6273L64.3745 49.4729C64.3745 49.4729 67.7323 44.5923 71.52 43.3793C74.7969 42.3299 79.4517 43.1899 79.4517 43.1899L79.8146 45.9149C79.8146 45.9149 76.3489 46.2384 74.3616 47.144C71.0608 48.6481 67.736 53.6273 67.736 53.6273ZM97.6501 74.4075C93.6359 75.897 90.2988 75.4407 90.2988 75.4407C90.2988 75.4407 88.9999 77.1422 88.8238 78.424C88.6773 79.4905 89.1867 81.1491 89.1867 81.1491C89.1867 81.1491 98.0685 81.0646 100.153 79.1452C102.68 76.8183 104.663 74.3473 104.663 74.3473L103.841 71.6868C103.841 71.6868 99.6975 73.6478 97.6501 74.4075ZM81.7734 58.4222C80.2153 60.448 77.1415 60.7335 74.908 59.0599C72.6745 57.3862 72.127 54.3872 73.6851 52.3614C75.2432 50.3355 78.3169 50.05 80.5504 51.7237C82.7839 53.3973 83.3315 56.3963 81.7734 58.4222Z" fill="white"/>
</svg>
