<svg width="213" height="36" viewBox="0 0 213 36" fill="none" xmlns="http://www.w3.org/2000/svg">
<path d="M15.5867 3.14917L15.9105 3.13226C16.7307 3.10604 17.9788 3.17886 19.2915 3.51602C20.7898 3.90088 22.4132 4.64129 23.5648 6.01486L23.7685 6.27221C24.213 6.86749 24.4489 7.42583 24.6762 7.96111L24.8374 8.33586C25.0025 8.70881 25.1867 9.08 25.4605 9.47898L25.6812 9.79015C26.2183 10.5209 26.892 11.2801 27.4639 11.8876C27.7891 12.2332 28.0789 12.5268 28.2868 12.7334C28.3906 12.8366 28.4743 12.9177 28.5315 12.9732C28.5601 13.0009 28.5823 13.0227 28.5971 13.0369C28.6044 13.0439 28.6103 13.0488 28.614 13.0523C28.6158 13.054 28.6166 13.0559 28.6175 13.0567L28.6186 13.0576L28.6675 13.1138C28.768 13.2523 28.7721 13.443 28.6706 13.5887L27.9807 14.5781C28.0279 14.6513 28.0857 14.7388 28.1477 14.8406C28.3371 15.1514 28.5866 15.5887 28.825 16.0945C29.2622 17.022 29.7008 18.2569 29.591 19.3761L29.5624 19.5981C29.4088 20.5118 29.1687 21.2117 28.7416 21.7942C28.3874 22.2773 27.9221 22.6519 27.3316 23.0051L27.6362 23.5096L31.3837 23.9681L31.4393 23.979C31.5663 24.013 31.67 24.1072 31.7155 24.2331C31.7675 24.3771 31.7348 24.5392 31.6304 24.6523L31.5004 24.7929L31.4996 24.794L31.4961 24.7974L31.4884 24.8064L31.4874 24.8065L31.4763 24.8189L31.4547 24.8417L31.3318 24.9694L30.8766 25.42C30.5851 25.699 30.202 26.0489 29.7556 26.4197L29.2893 26.7948C28.1001 27.7218 26.4935 28.7437 24.9266 28.9444L24.6131 28.9726C24.1132 29.0005 23.6383 29.0212 23.1874 29.0379L21.9054 29.08L21.8936 29.0797L21.4619 29.0931C20.7698 29.1145 20.1553 29.1375 19.6017 29.1799L19.0684 29.2293C17.7898 29.3714 16.9186 29.6629 16.2192 30.3239L16.0819 30.4615C15.8827 30.6707 15.6977 30.8852 15.522 31.1023L15.0151 31.7574L14.9214 31.882C14.7045 32.1708 14.4865 32.4618 14.2617 32.7281L14.0339 32.985C13.7353 33.3058 13.3992 33.5968 12.9972 33.7894L12.8202 33.8655C12.3889 34.0323 11.9197 34.0725 11.3989 33.9716L11.1723 33.9196C10.797 33.8204 10.4778 33.6461 10.2602 33.3733L10.1729 33.2505C9.95961 32.9079 9.93788 32.5173 10.0016 32.1563L10.064 31.8921C10.2441 31.266 10.6654 30.5855 11.1335 29.951L11.4522 29.5334C12.2227 28.5586 13.1476 27.5959 13.788 26.9291L14.1431 26.5548L13.4056 24.9376L13.3966 24.9143L13.2597 24.5597C13.2515 24.5384 13.2455 24.5158 13.241 24.4933C13.2212 24.3943 13.2161 24.3569 13.1998 24.2802C13.1869 24.2193 13.1743 24.1766 13.161 24.1437C13.141 24.0946 13.1202 24.0666 13.0654 24.0398C12.7295 23.9213 11.3448 23.3843 9.84121 22.5029C8.37156 21.6413 6.71446 20.4109 5.85936 18.8714L5.69962 18.5596C5.21944 17.5394 4.92348 16.6455 4.80076 15.7157C4.67812 14.7861 4.73111 13.8426 4.92215 12.7284L5.0183 12.2297C5.53945 9.81609 6.66802 8.49184 8.38929 6.6497L8.59799 6.43399C9.65977 5.37389 10.9768 4.5991 12.212 4.07017C13.5271 3.50703 14.7817 3.20874 15.5867 3.14917Z" fill="#610404" stroke="white" stroke-width="0.81835" stroke-linejoin="round"/>
<path fill-rule="evenodd" clip-rule="evenodd" d="M13.6417 24.4103C13.583 24.1175 13.5634 23.8221 13.2397 23.6678C12.8169 23.5275 7.54533 21.5187 6.06936 18.3831C5.13256 16.3929 4.95187 14.9714 5.32519 12.7945C5.77325 10.1817 6.86262 8.88074 8.68679 6.92848C10.7745 4.69416 14.1131 3.66885 15.614 3.5578C17.1148 3.44675 21.0964 3.70911 23.2514 6.27989C23.7896 6.92185 24.0405 7.51286 24.2995 8.12325C24.5132 8.62663 24.7325 9.1432 25.1231 9.71242C26.2865 11.4079 28.3364 13.3559 28.3364 13.3559L27.4881 14.5738C27.4881 14.5738 29.5096 17.4475 29.1589 19.5328C28.8628 21.2931 28.2628 22.0502 26.7646 22.8597L27.3881 23.8928L31.3311 24.375L31.2007 24.5163L31.1289 24.4515C31.1642 24.4834 31.1822 24.4996 31.1913 24.5078C31.2007 24.5163 31.2007 24.5163 31.2007 24.5163L31.1979 24.5193L31.19 24.5278C31.1871 24.531 31.1835 24.5348 31.1793 24.5393C31.1737 24.5452 31.167 24.5523 31.1592 24.5605C31.1322 24.5891 31.0922 24.6309 31.0404 24.684C30.9368 24.7903 30.7856 24.9421 30.5949 25.1247C30.2136 25.4898 29.6738 25.9784 29.0399 26.4726C27.7774 27.4566 26.1212 28.4788 24.5935 28.564C23.5993 28.6195 22.7043 28.6462 21.8965 28.6703L21.8841 28.6706C21.7374 28.675 21.5936 28.6793 21.4526 28.6837C20.5309 28.7123 19.7306 28.744 19.0258 28.8224C17.6179 28.979 16.6056 29.32 15.7869 30.1794C15.3702 30.6168 15.0179 31.0756 14.6892 31.5123C14.6578 31.554 14.6266 31.5955 14.5956 31.6367C14.303 32.0263 14.025 32.3964 13.7361 32.7069C13.4159 33.051 13.0757 33.3292 12.6758 33.4839C12.2736 33.6394 11.8199 33.6666 11.2794 33.5239C10.9149 33.4276 10.6637 33.2617 10.5203 33.0315C10.3773 32.8018 10.3517 32.5242 10.4045 32.2252C10.5091 31.6322 10.9293 30.9136 11.4612 30.1925C12.2622 29.1066 13.3464 27.9779 14.0819 27.2122L14.0821 27.212C14.3015 26.9836 14.4898 26.7875 14.6304 26.6344L13.7779 24.7655L13.6417 24.4103Z" fill="#610404"/>
<path d="M22.9574 22.2799C19.5773 23.4541 16.706 20.8612 16.706 20.8612L16.3431 20.4128C16.3431 20.4128 15.7508 20.8669 15.3174 21.0564C14.5281 21.4014 13.9864 21.4728 13.1353 21.3631C11.9746 21.2135 11.0744 20.9492 10.5198 19.9328C10.0153 19.008 9.75569 17.9265 10.5641 17.2298C11.1564 16.7193 11.7774 16.8299 12.5478 16.951C13.7193 17.1352 14.0461 18.3385 15.004 18.7033C15.962 19.0681 16.3926 18.5081 16.3926 18.5081C16.3926 18.5081 14.2129 13.5208 14.2468 13.0167C14.2807 12.5125 14.6644 12.3587 14.6644 12.3587C14.6644 12.3587 13.9779 11.756 14.0379 11.4479C14.0979 11.1398 21.1974 7.54519 21.1974 7.54519C21.1974 7.54519 22.9541 8.59675 22.9593 9.39505C22.9646 10.1934 22.9046 10.5014 23.6772 10.9921C24.4498 11.4828 26.9583 13.6273 26.9583 13.6273L24.9982 15.6007L26.1153 15.6435C26.1153 15.6435 27.7799 19.0385 27.2979 19.9719C26.816 20.9053 26.3375 21.1057 22.9574 22.2799Z" fill="#D9D9D9" stroke="white" stroke-width="0.306881"/>
<path d="M24.6198 24.1702C24.7049 24.2353 24.7902 24.3035 24.8735 24.3741C25.178 24.632 25.4495 24.9155 25.5973 25.1924C25.7435 25.4665 25.7607 25.7158 25.5948 25.935C25.424 26.1607 25.2312 26.2687 25.0064 26.349C24.91 26.3835 24.8095 26.4122 24.7008 26.4433L24.6376 26.4615C24.5057 26.4995 24.3642 26.5422 24.2156 26.6013C24.1042 26.6456 22.7643 26.9022 22.7643 26.9022C22.7643 26.9022 19.0828 27.7629 17.5492 26.4366C17.0033 25.9645 16.4388 24.9638 16.4388 24.9638C16.2386 24.5497 16.063 23.9828 15.9368 23.5151C15.88 23.3047 15.8336 23.1157 15.7998 22.9717C16.1192 22.9384 16.3789 23.0605 16.6698 23.1973L16.6698 23.1973C16.8162 23.2662 16.9706 23.3388 17.1445 23.3972C17.7193 23.5903 18.163 23.86 18.5873 24.118L18.5873 24.118C19.2088 24.4959 19.7887 24.8485 20.6787 24.8981C22.0102 24.9723 23.3339 24.663 24.6198 24.1702Z" fill="#D9D9D9"/>
<path d="M18.4366 13.3381L17.7109 12.4413C17.7109 12.4413 18.4358 11.3877 19.2535 11.1258C19.9609 10.8993 20.9657 11.0849 20.9657 11.0849L21.0441 11.6732C21.0441 11.6732 20.2959 11.743 19.8669 11.9385C19.1543 12.2632 18.4366 13.3381 18.4366 13.3381Z" fill="#171E1E"/>
<path d="M24.8942 17.8234C24.0277 18.145 23.3073 18.0464 23.3073 18.0464C23.3073 18.0464 23.0269 18.4138 22.9889 18.6905C22.9572 18.9207 23.0672 19.2788 23.0672 19.2788C23.0672 19.2788 24.9846 19.2605 25.4346 18.8462C25.9802 18.3438 26.4081 17.8104 26.4081 17.8104L26.2306 17.2361C26.2306 17.2361 25.3362 17.6594 24.8942 17.8234Z" fill="#171E1E"/>
<ellipse cx="1.09491" cy="0.995375" rx="1.09491" ry="0.995375" transform="matrix(0.797352 0.597482 -0.611859 0.795534 20.3296 12.2725)" fill="#171E1E"/>
<path d="M57.4927 17.6839C58.3962 17.9701 59.104 18.4519 59.616 19.1296C60.128 19.7922 60.384 20.6129 60.384 21.5917C60.384 22.9771 59.8419 24.0463 58.7576 24.7992C57.6884 25.5371 56.1223 25.9061 54.0593 25.9061H45.8823V10.0943H53.6075C55.535 10.0943 57.0108 10.4632 58.0348 11.2011C59.0739 11.939 59.5934 12.9404 59.5934 14.2054C59.5934 14.9734 59.4051 15.6585 59.0287 16.2609C58.6673 16.8632 58.1553 17.3376 57.4927 17.6839ZM49.519 12.8501V16.5771H53.1557C54.0593 16.5771 54.7444 16.419 55.2113 16.1028C55.6781 15.7865 55.9115 15.3197 55.9115 14.7023C55.9115 14.0849 55.6781 13.6256 55.2113 13.3244C54.7444 13.0082 54.0593 12.8501 53.1557 12.8501H49.519ZM53.7882 23.1503C54.752 23.1503 55.4748 22.9922 55.9567 22.6759C56.4536 22.3597 56.7021 21.8703 56.7021 21.2077C56.7021 19.8976 55.7308 19.2425 53.7882 19.2425H49.519V23.1503H53.7882Z" fill="black"/>
<path d="M73.2287 25.9061L70.1793 21.5014H66.8137V25.9061H63.1544V10.0943H69.9986C71.3991 10.0943 72.6113 10.3277 73.6353 10.7945C74.6744 11.2614 75.4725 11.9239 76.0297 12.7823C76.5869 13.6407 76.8654 14.6571 76.8654 15.8317C76.8654 17.0063 76.5793 18.0228 76.0071 18.8811C75.4499 19.7244 74.6518 20.3719 73.6127 20.8237L77.1591 25.9061H73.2287ZM73.161 15.8317C73.161 14.9432 72.8749 14.2656 72.3026 13.7988C71.7304 13.3169 70.8946 13.0759 69.7953 13.0759H66.8137V18.5875H69.7953C70.8946 18.5875 71.7304 18.3465 72.3026 17.8647C72.8749 17.3828 73.161 16.7051 73.161 15.8317Z" fill="black"/>
<path d="M93.9049 10.0943V25.9061H90.3586V23.9861C89.2743 25.4468 87.6781 26.1771 85.5699 26.1771C83.7026 26.1771 82.2419 25.5898 81.1877 24.4152C80.1487 23.2256 79.6291 21.539 79.6291 19.3555V10.0943H83.2884V19.2425C83.2884 20.5075 83.5821 21.4637 84.1694 22.1112C84.7717 22.7437 85.5849 23.0599 86.6089 23.0599C87.7082 23.0599 88.5891 22.7211 89.2517 22.0435C89.9143 21.3508 90.2456 20.3343 90.2456 18.9941V10.0943H93.9049Z" fill="black"/>
<path d="M106.035 9.82324C107.917 9.82324 109.385 10.4181 110.439 11.6077C111.493 12.7823 112.021 14.4614 112.021 16.6449V25.9061H108.361V16.7578C108.361 15.4929 108.06 14.5442 107.458 13.9117C106.87 13.2642 106.05 12.9404 104.996 12.9404C103.881 12.9404 102.985 13.2868 102.308 13.9795C101.645 14.6571 101.314 15.6661 101.314 17.0063V25.9061H97.6544V10.0943H101.201V12.0143C101.743 11.2915 102.421 10.7494 103.234 10.3879C104.047 10.0115 104.981 9.82324 106.035 9.82324Z" fill="black"/>
<path d="M123.29 26.1771C121.648 26.1771 120.165 25.8232 118.84 25.1155C117.53 24.4077 116.498 23.4364 115.745 22.2016C115.007 20.9517 114.638 19.5512 114.638 18.0002C114.638 16.4491 115.007 15.0562 115.745 13.8214C116.498 12.5715 117.53 11.5927 118.84 10.8849C120.165 10.1771 121.648 9.82324 123.29 9.82324C124.931 9.82324 126.407 10.1771 127.717 10.8849C129.027 11.5927 130.059 12.5715 130.812 13.8214C131.565 15.0562 131.941 16.4491 131.941 18.0002C131.941 19.5512 131.565 20.9517 130.812 22.2016C130.059 23.4364 129.027 24.4077 127.717 25.1155C126.407 25.8232 124.931 26.1771 123.29 26.1771ZM123.29 23.0599C124.223 23.0599 125.067 22.8491 125.82 22.4275C126.573 21.9908 127.16 21.3884 127.582 20.6204C128.018 19.8524 128.237 18.979 128.237 18.0002C128.237 17.0214 128.018 16.1479 127.582 15.3799C127.16 14.6119 126.573 14.0171 125.82 13.5955C125.067 13.1588 124.223 12.9404 123.29 12.9404C122.356 12.9404 121.513 13.1588 120.76 13.5955C120.007 14.0171 119.412 14.6119 118.975 15.3799C118.554 16.1479 118.343 17.0214 118.343 18.0002C118.343 18.979 118.554 19.8524 118.975 20.6204C119.412 21.3884 120.007 21.9908 120.76 22.4275C121.513 22.8491 122.356 23.0599 123.29 23.0599Z" fill="black"/>
<path d="M148.903 10.0943C150.303 10.0943 151.516 10.3277 152.54 10.7945C153.579 11.2614 154.377 11.9239 154.934 12.7823C155.491 13.6407 155.77 14.6571 155.77 15.8317C155.77 16.9912 155.491 18.0077 154.934 18.8811C154.377 19.7395 153.579 20.4021 152.54 20.8689C151.516 21.3207 150.303 21.5465 148.903 21.5465H145.718V25.9061H142.059V10.0943H148.903ZM148.7 18.5649C149.799 18.5649 150.635 18.3315 151.207 17.8647C151.779 17.3828 152.065 16.7051 152.065 15.8317C152.065 14.9432 151.779 14.2656 151.207 13.7988C150.635 13.3169 149.799 13.0759 148.7 13.0759H145.718V18.5649H148.7Z" fill="black"/>
<path d="M172.456 10.0943V25.9061H168.91V23.9861C167.826 25.4468 166.229 26.1771 164.121 26.1771C162.254 26.1771 160.793 25.5898 159.739 24.4152C158.7 23.2256 158.18 21.539 158.18 19.3555V10.0943H161.84V19.2425C161.84 20.5075 162.133 21.4637 162.721 22.1112C163.323 22.7437 164.136 23.0599 165.16 23.0599C166.259 23.0599 167.14 22.7211 167.803 22.0435C168.466 21.3508 168.797 20.3343 168.797 18.9941V10.0943H172.456Z" fill="black"/>
<path d="M176.206 10.0943H179.865V22.9244H187.793V25.9061H176.206V10.0943Z" fill="black"/>
<path d="M195.259 13.0308V22.9696H197.992V25.9061H188.844V22.9696H191.6V13.0308H188.844V10.0943H197.992V13.0308H195.259Z" fill="black"/>
<path d="M205.952 26.1771C204.703 26.1771 203.49 26.0115 202.316 25.6802C201.156 25.3338 200.223 24.8896 199.515 24.3475L200.757 21.5917C201.435 22.0887 202.24 22.4877 203.174 22.7889C204.108 23.0901 205.041 23.2407 205.975 23.2407C207.014 23.2407 207.782 23.0901 208.279 22.7889C208.776 22.4727 209.024 22.0585 209.024 21.5465C209.024 21.1701 208.874 20.8614 208.573 20.6204C208.287 20.3644 207.91 20.1611 207.443 20.0105C206.991 19.8599 206.374 19.6943 205.591 19.5136C204.386 19.2275 203.4 18.9414 202.632 18.6552C201.864 18.3691 201.201 17.9098 200.644 17.2774C200.102 16.6449 199.831 15.8016 199.831 14.7475C199.831 13.8289 200.079 13.0007 200.576 12.2628C201.073 11.5098 201.819 10.915 202.813 10.4783C203.822 10.0416 205.049 9.82324 206.495 9.82324C207.503 9.82324 208.49 9.94371 209.454 10.1847C210.417 10.4256 211.261 10.7719 211.983 11.2237L210.854 14.0021C209.393 13.1738 207.933 12.7597 206.472 12.7597C205.448 12.7597 204.687 12.9254 204.191 13.2567C203.709 13.5879 203.468 14.0247 203.468 14.5668C203.468 15.1089 203.746 15.5155 204.303 15.7865C204.876 16.0425 205.742 16.2985 206.901 16.5545C208.106 16.8407 209.092 17.1268 209.86 17.4129C210.628 17.699 211.283 18.1508 211.825 18.7682C212.383 19.3856 212.661 20.2214 212.661 21.2755C212.661 22.179 212.405 23.0072 211.893 23.7602C211.396 24.4981 210.643 25.0854 209.634 25.5221C208.625 25.9588 207.398 26.1771 205.952 26.1771Z" fill="black"/>
</svg>
