<svg version="1.2" xmlns="http://www.w3.org/2000/svg" viewBox="0 0 3076 582" width="3076" height="582">
<style>.a{fill:#bc368c}.b{fill:#e43c52}.c{fill:#df2e64}.d{fill:#e7473a}.e{fill:#a14491}.f{fill:#cf485d}.g{fill:#b6467c}.h{fill:#dc1b73}.i{fill:#a04392}</style><path class="a" d="m290.5 0.8q1.3-0.1 2.7-0.1c61.3 0.1 120.7 18.3 169.8 55.3q0.9 0.6 1.7 1.3c8.4 6.3 16.2 13.1 23.8 20.3q2.2 2.1 4.5 4.1c4.7 4.2 9.2 8.4 13.3 13.3 1.9 2.2 3.8 4.3 5.8 6.4 14.6 16.2 26.7 34.4 36.9 53.6q0.5 0.9 1 1.9c13.1 24.3 21.5 50.4 26.8 77.5q0.3 1.4 0.6 3c3.1 16.7 4 33.4 3.9 50.4q0 4.9 0.1 9.8c0 19.5-1.7 39-6 58.1q-0.3 1.7-0.7 3.4c-10.7 46.4-33.1 89.6-65.4 124.5q-2.9 3.1-5.7 6.3c-7.2 8.3-15.2 16.1-23.6 23.1-0.7 0.6-0.7 0.6-1.5 1.3-47.6 40.8-110.6 66.6-173.6 66.9q-1.6 0-3.1 0-5 0-9.9 0c-1.7 0.1-1.7 0.1-3.4 0.1-16.1-0.1-31.7-0.3-47.5-3.3q-1.4-0.3-2.9-0.5c-39-7-75.3-21.4-108.1-43.5q-1-0.7-2-1.3c-11.6-8-22.2-17.1-32.7-26.6q-2.3-2.1-4.7-4.2c-4.2-3.6-8-7.3-11.6-11.6-1.9-2.2-4-4.4-6-6.5-40.7-42.7-65.3-101.4-71-159.8q-0.1-1.3-0.3-2.6c-6.7-76.7 13.3-153.3 62.7-213.1q2.6-3.1 5.4-6c1.9-2 3.6-3.9 5.4-6 10.2-11.7 21.4-22.9 33.8-32.3q1.9-1.5 3.8-3c42.6-33.4 92.3-53.4 146.2-59 1.3-0.1 1.3-0.1 2.6-0.3 9.6-0.9 19.2-0.9 28.9-1zm-42.5 68.3c-1.5 0.3-1.5 0.3-3 0.6-35 7.2-66.3 21.8-94 44.4q-0.8 0.7-1.7 1.4c-13.3 10.9-25.7 22.9-36.3 36.6-1.2 1.4-1.2 1.4-2.3 2.9-30.9 38.3-45.2 86.9-45 135.7q0 1.3 0 2.6c0.2 47.9 13.8 93.6 43.3 131.8q0.9 1.2 1.9 2.5c12.4 15.9 27 31.3 43.1 43.5 0.9 0.7 0.9 0.7 1.9 1.4 40.7 31.4 91.8 47 143.1 44.6 1.3-0.1 1.3-0.1 2.7-0.1 23.1-1.2 45.5-5.1 67.3-12.9q1.8-0.6 3.7-1.3c35-13.1 67.4-37 91.3-65.7q0.7-0.8 1.4-1.6c32.2-38.4 50-85.4 51.6-135.4 0-1 0-1 0.1-2 1.5-55.5-15.8-108.9-52.1-151q-1.1-1.3-2.2-2.6c-10.5-12-22-23.8-34.8-33.4q-0.8-0.6-1.6-1.2c-30.8-23-66.2-37.9-104.4-42.8q-1-0.1-2-0.3c-23.2-2.8-49.2-2.3-72 2.3z"/><path class="b" d="m1525.8 150.8q1-0.1 2-0.1c47.7 0.1 87.9 19.1 122 51.7 30.8 31.8 46.7 73.8 46.5 117.8 0 1.1 0 1.1 0 2.3 0 12.1-0.7 23.7-3.3 35.5q-0.2 1.1-0.5 2.3c-6.7 31-22.9 57-44.5 79.7q-1.1 1.2-2.3 2.5c-20.3 21.3-48.1 36.8-76.7 43.5-1.2 0.3-1.2 0.3-2.5 0.6-26.5 6-56.1 5.7-82.5-0.6q-1.2-0.3-2.4-0.6c-15.6-3.7-30-10.6-43.8-18.7-2.2-1.4-4.5-2.6-6.8-3.7q0 1.2 0 2.4 0.1 11.5 0.2 22.9 0 5.9 0.1 11.7 0.1 5.7 0.1 11.4 0 2.2 0 4.3c0.2 11.5-1.2 20.9-9.3 29.5-11.1 9.4-25.5 8.7-39.1 7.8-8.7-1.6-15-6.1-20.5-12.9-5.3-7.6-5.8-16.5-5.8-25.5q0-1.4 0-2.7 0-4.5 0-8.9 0-3.2 0-6.4 0-8.7 0-17.4 0-7.2 0-14.5 0-17.2 0-34.3 0-17.7 0-35.3-0.1-15.2-0.1-30.4 0-9.1 0-18.1 0-8.6 0-17.1 0-3.1 0-6.2c-0.1-42 12.3-82.9 41.3-114.1 1.9-2 3.7-4 5.4-6.1 25.1-28.6 61.5-45.9 98.7-51.1 1-0.1 1-0.1 2-0.3 7.2-0.9 14.5-0.9 21.8-1zm-70.6 104.8c-17.6 20.3-26.7 44.7-24.9 71.7 2 24.1 12 44.3 28.7 61.8 0.8 0.9 0.8 0.9 1.6 1.8 15.5 17 39.7 25 62 26.4 26 0.7 50.7-8.5 69.8-26.3 19-18.2 29.3-40.8 30.8-67.2 0.5-28.1-10.4-52.4-29.5-72.5-18.7-18-41.7-26.4-67.2-27.3-27.4 1-52.3 11.7-71.3 31.6z"/><path class="c" d="m1244 187c0.8 0.6 0.8 0.6 1.6 1.3 17.1 13.9 31.1 29.7 42.4 48.7q0.5 0.9 1.1 1.8c12.2 20.9 18.2 43.9 20.3 68 0.1 1.4 0.1 1.4 0.2 2.9 0.7 9.4 1.2 19.4-4.6 27.3-4.8 5.4-10.6 8.6-17.8 9.3-3.5 0.1-6.9 0.1-10.3 0.1-2 0-2 0-3.9 0.1q-5.4 0-10.8 0-5.8 0-11.5 0.1-11.1 0-22.2 0.1-12.7 0-25.4 0.1-78.1 0.4-156.1 0.2 1.4 3.5 2.8 7.1 0.4 1 0.8 2c4.4 11.2 10.3 20.9 18.4 29.9 1.1 1.3 1.1 1.3 2.3 2.6 16.3 17.3 39.5 27.8 63.3 28.6 26.7 0.4 50.9-6.8 70.5-25.6 0.7-0.8 0.7-0.8 1.5-1.6 4.6-4.6 9.5-7.4 16.3-7.4q1.1-0.1 2.3-0.1c10.2 1.8 16.4 8.2 23.4 15.4q2.6 2.6 5.2 5.2c7.2 7.1 12.4 13.2 13.6 23.5-1.8 14.6-13.7 22.8-24.6 31.3-34.9 26.8-80.1 38.6-123.8 33.1-46.7-6.6-87.1-29.4-116-66.9-28-37.5-37.8-83.8-31.4-129.8 5.4-34.9 21.4-64.6 45.4-90.3 1.3-1.4 1.3-1.4 2.6-2.8 57.4-60.4 159.8-66.6 224.4-14.2zm-175.6 69.8c-4.3 5.1-8.4 10.2-11.4 16.2 54.5 0 108.9 0 165 0-7.5-18.8-27.2-32.6-45.2-40.5-36.9-15.2-81.6-5.6-108.4 24.3z"/><path class="d" d="m2024.9 190.6c8.9 7.9 16.8 16 24.1 25.4 1.2 1.5 1.2 1.5 2.4 3.1 15.9 20.9 24.7 44.4 29.6 69.9q0.2 1 0.4 2.1c7.8 41.6-2.1 87.7-25.8 122.7-9.6 13.4-20.6 26.9-33.6 37.2q-0.8 0.6-1.6 1.3c-24.3 19.2-51.7 31.4-82.4 35.7q-1 0.1-2 0.3c-44.2 5.8-89.2-5.3-124.8-32.2-6.4-5-12.3-10.5-18.2-16.1q-1.1-1-2.3-2.1c-19.5-18.5-33.5-43.7-41-69.3q-0.4-1.2-0.7-2.4c-4-14.5-5.5-29.2-5.4-44.3q0-3.6 0-7.3c0-15 1.8-29.8 6.1-44.2q0.4-1.3 0.8-2.6c7.9-26.1 22.7-48.3 41.5-67.8q1.1-1.2 2.3-2.5c55.7-58.6 155.1-63.7 230.6-6.9zm-173.9 55.4q-1.6 1.3-3.2 2.5c-18 16-28.6 38.7-30.8 62.5-1.4 26.7 5.9 51.8 24 72 17.2 19 39.7 31.3 65.6 32.9q1.2 0.1 2.4 0.1 1 0.1 2.1 0.1c26.1 0.9 50-9.5 68.9-27.1q1-0.9 2-1.8c15.2-14 25.9-36.5 27.2-57.1 0.6-29.2-4.2-52.9-24.2-75.1q-1.2-1.4-2.5-2.8c-17.4-18.3-40.9-28-66-29.4-24.6-0.4-46.9 7.1-65.5 23.2z"/><path class="e" d="m3012.4 183.7q1.3 1.1 2.6 2.3 1.5 1.3 3 2.6c33.3 29.6 54.1 69.7 57 114.4 1.9 44.6-8.7 89.2-39.4 122.9q-2 2.2-4.1 4.4c-1.8 1.9-3.4 3.8-5.1 5.8-3.2 3.8-6.6 6.8-10.4 9.9q-0.8 0.6-1.5 1.3c-36 30.8-81.1 41.7-127.6 38.5-18-1.8-35.5-6.4-51.9-13.8q-0.9-0.4-1.9-0.9c-39-17.5-72-52.9-87.3-92.8-2.2-6-4-12.2-5.6-18.4-0.2-1.2-0.2-1.2-0.6-2.4-3-12.7-3.9-25.2-3.9-38.2q0-3.7-0.1-7.5c0-15.1 1.8-30 6.1-44.5q0.4-1.3 0.8-2.6c7.5-24.6 21.1-46.7 39-65.1q2.2-2.4 4.5-4.7c57.9-60.3 162.7-65.6 226.4-11.2zm-169.4 59.3q-1 0.8-2 1.6c-17.6 14.1-28.7 36.8-31.7 58.8-2.3 26.1 3.3 50.8 19.4 71.7 18.6 22 41.3 35.3 70.2 37.8 24.5 0.9 48.4-5.6 67.1-21.9q1.2-1 2.4-1.9c17.9-15.3 29.2-35.9 32.6-59.1 1.7-27.6-2.5-52.3-20.4-74.1-17-19.2-38.8-33.8-65.1-35.8q-1.2-0.1-2.5-0.1c-1.7-0.1-1.7-0.1-3.5-0.2-24.7-0.5-47.6 6.9-66.5 23.2z"/><path class="f" d="m2297.1 148.7q3.8 0 7.7-0.1c45.8-0.1 85.4 19.5 118 51 33.2 34.4 47.3 77.6 47.4 124.8q0 2.2 0 4.5 0 6 0 12 0 3.8 0 7.6 0 11.8 0 23.6 0 13.7 0.1 27.3 0 10.6 0 21.1 0 6.3 0 12.6 0.1 5.9 0.1 11.8 0 2.2 0 4.4c0 11.2-1 19.8-8.3 28.6-7.8 7.9-16.3 9.3-27.1 10.1q-1.2 0.1-2.4 0.2c-10.5 0.4-19.5-2.9-27.4-9.8-9.1-9.6-8.8-21.5-8.9-34q-0.1-2.8-0.1-5.6-0.1-9.4-0.2-18.8 0-3.3-0.1-6.7-0.1-17.7-0.2-35.4c0-1.8 0-1.8 0-3.6q-0.1-9.2-0.1-18.5 0-9.1-0.1-18.2 0-3.4 0-6.9c-0.1-30.9-7.2-58.5-29.1-81.4-19.5-18.6-43.9-26.9-70.6-26.5-25.6 0.8-48.3 11.8-65.8 30.2-18.4 19.7-25.5 43.6-25.4 70.1q0 2.3 0 4.6 0 4.9 0 9.8 0 7.8 0 15.5 0 19.3 0 38.5 0 15.1-0.1 30.1 0 7.7 0 15.4 0 4.8 0 9.6 0 2.2 0 4.4c0.1 8.2-0.2 14.8-4.5 22q-0.7 1.2-1.4 2.5c-4.9 6.5-10.7 10.5-18.6 12.5-4.1 0.3-8.2 0.4-12.2 0.4q-1.7 0-3.3 0c-9.6 0.1-17.8-2-25-8.7-6.1-6.8-8.7-13.9-8.8-23.1 0-1.1 0-1.1 0-2.2q-0.1-3.5-0.1-7.1 0-2.6-0.1-5.1 0-6.9-0.1-13.8 0-4.3-0.1-8.6-0.2-19-0.3-38 0-4.1 0-8.2-0.1-15.7-0.2-31.4 0-3.3 0-6.6c-0.1-19.3-0.2-38.7 4.3-57.5q0.3-1.4 0.7-2.8c6.7-27.1 20-51 39.2-71.3q1.7-2 3.4-4c29.8-34 75.1-51.4 119.7-51.3z"/><path class="g" d="m2553.4 50.6c1.4 0 1.4 0 2.8 0 10.2 0.2 17.7 2.5 25.2 9.6 9.1 9.9 9 21.4 8.9 34.1q0 2.3 0 4.7 0 6-0.1 12.1 0 6.3-0.1 12.5 0 12.2-0.1 24.4 1.7 0 3.4-0.1c38-1 38-1 53.7-1.1q1.5 0 3 0c11.1 0 19.1 2.2 27.6 9.5 7.2 8.4 9.7 16.5 9.6 27.5q0 1.3 0 2.7c-0.2 10.2-2.1 17.9-9.3 25.5-9.9 9.2-20.6 9.4-33.4 9.3q-2.4 0-4.7 0-6.2 0-12.4-0.1-6.4 0-12.7-0.1-12.4 0-24.8-0.1 0.2 15.1 0.3 30.3 0.1 7 0.2 14.1c0.3 26.1 0.3 26.1 0.9 52.2q0.1 1.5 0.1 3.1c1 24.8 11.8 49.6 30 66.7 12.8 10.8 25.8 17.4 41.7 22.6 8.9 3.1 16.5 7.5 20.9 16.1 4.9 10.6 5.9 24.5 2.7 35.9-3.6 8.7-10 15.2-18.1 19.9-18.9 5.7-38.6-2.8-55.7-10.9q-1-0.5-2-0.9c-15.5-7.5-29.3-17.6-41.5-29.7q-2.1-2-4.3-4c-22.1-21.1-36.8-48.6-44.1-78.2q-0.3-1.1-0.6-2.3c-3.2-14.1-3.8-28.4-3.8-42.9q0-2.5 0-5.1-0.1-7-0.1-14 0-7.4-0.1-14.9 0-12.6-0.1-25.1 0-17.4-0.1-34.7-0.2-27.3-0.2-54.5-0.1-16.4-0.2-32.7 0-9.5-0.1-18.9 0-5.3 0-10.6-0.1-5.8-0.1-11.5 0-1.6 0-3.3c0-10.5 2.4-19.5 9.3-27.7 7.9-7.8 17.7-9.6 28.4-9.4z"/><path class="h" d="m937.9 194.3q1.8 1.6 3.5 3.1 0.8 0.7 1.6 1.4c5.2 4.9 8.7 10.5 9 17.7-0.1 10.6-6 16.5-13.2 23.5q-1 1-2 2-3 2.9-5.9 5.9-2 1.9-3.9 3.8-0.9 0.9-1.7 1.8c-5 4.8-9.8 7.1-16.8 7.9-7.4-0.8-11.9-3.4-17.3-8.4-22.1-20-46.6-26-75.9-25.2-23.4 1.3-45.6 14.3-61.3 31.2-22.6 26.2-24.3 56.7-24.1 89.9q0.1 7.3 0.1 14.6 0.1 20.7 0.2 41.4 0.1 11.5 0.1 22.9 0 7.3 0.1 14.5 0 4.5 0 9 0 3.1 0.1 6.1c0 10.7-1.9 19.9-9.4 27.9-8.5 7-17.1 7.9-27.7 8q-1.5 0.1-3.1 0.1c-9.5 0.1-18.7-1.9-25.8-8.6-8.6-10.1-8.8-21.3-8.8-34q0-2.3 0-4.6 0-6.2 0-12.4 0-5.3 0-10.5 0-12.3 0-24.7 0-12.6 0-25.3-0.1-10.9-0.1-21.9 0-6.5 0-13c-0.1-48.9 9.2-93.3 44-129.8 2.4-2.5 2.4-2.5 4.5-5.2 2.9-3.6 6.4-6.4 9.9-9.4 1.2-1.1 1.2-1.1 2.5-2.3 62.7-54.7 159.6-50.2 221.4 2.6z"/><path class="a" d="m450.9 161.1c5.4 4.6 9.7 10.8 11.1 17.9q0.2 3 0.2 6 0 1.8 0 3.7 0 2.1 0 4.1 0.1 2.2 0.1 4.3 0 5.9 0.1 11.8 0 3.7 0 7.3 0.1 12.9 0.2 25.8 0.1 11.9 0.2 23.9 0.1 10.3 0.2 20.6 0 6.1 0.1 12.2c0.5 53.1-6.6 102.5-45.1 142.2q-0.7 0.8-1.5 1.6-2.3 2.3-4.5 4.6c-27.6 28.8-67.6 47.2-107.7 48.1-30.5 0.5-58.5-2.5-86.3-16.2q-0.9-0.5-1.9-0.9c-13.3-6.6-24.9-14.7-35.7-24.9-2-1.9-4.1-3.6-6.3-5.3-4.4-3.8-6.7-7.9-7.5-13.6-0.3-8.1 2.1-13.9 7.5-20q1.7-1.8 3.5-3.6c0.9-1 0.9-1 1.8-2q1.9-1.9 3.8-3.9 2.5-2.5 4.9-5.1c7-7.4 12-11.8 22.4-12.3 8.8 0.4 12.9 4.1 19.2 9.9 19.3 17.8 44.6 24.7 70.3 23.7 20.8-1.6 39.3-9.3 55-23q1-0.8 2-1.6c18.3-14.8 28-37.6 31-60.4 0.4-5.4 0.4-10.8 0.4-16.2q0-2.3 0-4.6 0-5 0-9.9 0-7.8 0-15.6 0.1-18 0.1-36 0-16.6 0.1-33.1 0-7.8 0-15.5 0-4.8 0-9.7 0-2.2 0-4.4c0-11.6 0.9-19.3 9.1-27.9 12.9-11.5 39.2-11.9 53.2-2z"/><path class="a" d="m337.7 267.3c3.6 3 7 6.3 10.3 9.7q1.1 1.1 2.3 2.3c8.2 8.9 13.6 17.7 15.7 29.7q0.3 1.8 0.7 3.7c2 20.6-1.7 39.6-14.2 56.3q-1.7 2-3.5 4c-0.9 1-0.9 1-1.8 2-9.3 10-21.8 18.7-35.6 20.7q-1.1 0.2-2.3 0.4c-22.6 3.2-43.6-0.5-62.3-14.1-12.9-10-24.4-24-26.8-40.6-0.5-5.1-0.5-10.3-0.6-15.5q0-1.6 0-3.3c0.1-19 7.7-34.7 20.9-48.1 25.8-24.6 67.8-29.8 97.2-7.2z"/><path class="i" d="m2941.8 271c12.6 10.4 19.5 24.8 21.1 41 0.8 17.9-5.3 32.9-17.3 46.1-10.7 10.3-25.5 15.7-40.2 16.2-17.1-0.7-31.6-7-43.6-19.3-11.5-13.7-15.1-29.5-13.8-47 2.3-16.7 11.6-29.9 24.8-39.9 21.5-14.1 48.5-11.5 69 2.9z"/></svg>